<?xml version="1.0" encoding="UTF-8" standalone="no"?>
<!-- Generator: Adobe Illustrator 14.0.0, SVG Export Plug-In . SVG Version: 6.00 Build 43363)  -->

<svg
   xmlns:dc="http://purl.org/dc/elements/1.1/"
   xmlns:cc="http://creativecommons.org/ns#"
   xmlns:rdf="http://www.w3.org/1999/02/22-rdf-syntax-ns#"
   xmlns:svg="http://www.w3.org/2000/svg"
   xmlns="http://www.w3.org/2000/svg"
   xmlns:sodipodi="http://sodipodi.sourceforge.net/DTD/sodipodi-0.dtd"
   xmlns:inkscape="http://www.inkscape.org/namespaces/inkscape"
   version="1.1"
   id="UiBmerke_grayscale"
   x="0px"
   y="0px"
   width="99.213px"
   height="99.213px"
   viewBox="0 0 99.213 99.213"
   enable-background="new 0 0 99.213 99.213"
   xml:space="preserve"
   inkscape:version="0.48.4 r9939"
   sodipodi:docname="UiB-logo-inverted.svg"><metadata
     id="metadata83"><rdf:RDF><cc:Work
         rdf:about=""><dc:format>image/svg+xml</dc:format><dc:type
           rdf:resource="http://purl.org/dc/dcmitype/StillImage" /><dc:title /></cc:Work></rdf:RDF></metadata><defs
     id="defs81" /><sodipodi:namedview
     pagecolor="#ffffff"
     bordercolor="#666666"
     borderopacity="1"
     objecttolerance="10"
     gridtolerance="10"
     guidetolerance="10"
     inkscape:pageopacity="0"
     inkscape:pageshadow="2"
     inkscape:window-width="640"
     inkscape:window-height="480"
     id="namedview79"
     showgrid="false"
     inkscape:zoom="2.3787206"
     inkscape:cx="49.606499"
     inkscape:cy="49.606499"
     inkscape:window-x="75"
     inkscape:window-y="43"
     inkscape:window-maximized="0"
     inkscape:current-layer="UiBmerke_grayscale" /><g
     id="g3"
     style="fill:#ffffff"
     transform="matrix(1.3915278,0,0,1.3915278,-19.422323,-19.422128)"><g
       id="g5"
       style="fill:#ffffff"><g
         id="g7"
         style="fill:#ffffff"><path
           d="m 20.524,42.076 c -0.641,-0.111 -1.833,-0.295 -2.173,-0.174 -0.137,0.051 -0.241,0.225 -0.307,0.48 l -0.065,0.253 c -0.083,0.05 -0.214,0.006 -0.244,-0.063 0.088,-0.39 0.165,-0.77 0.234,-1.173 0.075,-0.434 0.113,-0.715 0.156,-1.09 0.066,-0.074 0.198,-0.041 0.252,0.021 l -0.022,0.252 c -0.023,0.262 0.035,0.474 0.159,0.56 0.315,0.204 1.504,0.409 2.083,0.508 l 1.168,0.203 c 0.898,0.155 1.825,0.464 2.345,1.15 0.409,0.529 0.545,1.34 0.414,2.104 -0.124,0.713 -0.382,1.403 -0.903,1.834 -0.55,0.469 -1.349,0.597 -2.579,0.385 l -2.438,-0.423 c -1.075,-0.186 -1.254,-0.195 -1.409,0.396 l -0.065,0.255 c -0.053,0.055 -0.225,0.003 -0.245,-0.063 0.11,-0.514 0.182,-0.864 0.253,-1.277 0.073,-0.424 0.122,-0.767 0.188,-1.277 0.042,-0.056 0.222,-0.046 0.252,0.023 l -0.021,0.251 c -0.053,0.609 0.119,0.66 1.194,0.846 l 2.232,0.386 c 1.664,0.289 2.849,-0.039 3.122,-1.621 0.26,-1.499 -0.82,-2.27 -2.392,-2.542 l -1.189,-0.204 z"
           id="path9"
           style="fill:#ffffff"
           inkscape:connector-curvature="0" /><path
           d="m 27.051,33.732 c 0.275,0.153 1.364,0.762 1.618,0.867 0.045,0.049 0.06,0.13 0.004,0.23 -0.218,0.023 -0.687,0.109 -2.038,0.4 l -3.604,0.773 c -0.421,0.088 -1.52,0.292 -1.829,0.371 l -0.01,0.018 c 0.089,0.099 0.295,0.225 0.569,0.378 l 1.996,1.116 c 0.431,0.241 1.625,0.896 1.987,0.894 0.132,0.002 0.288,-0.15 0.435,-0.37 l 0.187,-0.268 c 0.104,-0.015 0.209,0.056 0.218,0.145 -0.248,0.403 -0.436,0.717 -0.625,1.057 -0.215,0.385 -0.344,0.637 -0.505,0.967 -0.081,0.04 -0.215,-0.024 -0.239,-0.109 l 0.111,-0.262 c 0.09,-0.226 0.117,-0.404 0.042,-0.505 -0.259,-0.313 -1.381,-0.928 -1.82,-1.173 L 20.9,36.782 c -0.256,-0.143 -0.453,-0.241 -0.771,-0.167 -0.199,0.057 -0.387,0.24 -0.536,0.445 l -0.105,0.146 c -0.086,0.023 -0.224,-0.053 -0.219,-0.146 0.242,-0.37 0.514,-0.854 0.605,-1.019 0.082,-0.146 0.159,-0.307 0.208,-0.437 0.569,0.078 2.381,-0.328 2.889,-0.44 l 1.495,-0.331 c 1.057,-0.238 1.82,-0.4 2.5,-0.585 l 0.011,-0.018 c -0.024,-0.063 -0.171,-0.145 -0.364,-0.251 l -1.959,-1.095 c -0.431,-0.24 -1.626,-0.896 -1.998,-0.876 -0.113,0.009 -0.25,0.125 -0.5,0.466 L 22.05,32.62 c -0.091,0.033 -0.232,-0.058 -0.219,-0.146 0.254,-0.411 0.437,-0.717 0.632,-1.065 0.22,-0.394 0.344,-0.637 0.499,-0.958 0.087,-0.048 0.215,0.024 0.239,0.109 l -0.054,0.139 c -0.118,0.318 -0.146,0.542 -0.094,0.62 0.242,0.34 1.388,0.956 1.81,1.191 l 2.188,1.222 z"
           id="path11"
           style="fill:#ffffff"
           inkscape:connector-curvature="0" /><path
           d="m 27.019,28.408 c -0.799,-0.772 -0.942,-0.881 -1.41,-0.472 l -0.197,0.174 c -0.073,0.016 -0.195,-0.13 -0.174,-0.197 0.38,-0.363 0.635,-0.612 0.941,-0.929 0.291,-0.302 0.53,-0.566 0.879,-0.958 0.067,-0.024 0.217,0.092 0.204,0.167 l -0.167,0.203 c -0.393,0.482 -0.278,0.621 0.521,1.393 l 2.687,2.593 c 0.8,0.772 0.92,0.859 1.403,0.464 l 0.205,-0.167 c 0.073,-0.017 0.194,0.13 0.174,0.197 -0.38,0.363 -0.635,0.612 -0.926,0.914 -0.307,0.317 -0.547,0.581 -0.896,0.973 -0.066,0.023 -0.201,-0.078 -0.203,-0.167 l 0.159,-0.21 C 30.596,31.89 30.505,31.772 29.705,31 l -2.686,-2.592 z"
           id="path13"
           style="fill:#ffffff"
           inkscape:connector-curvature="0" /><path
           d="m 30.741,24.312 c -0.518,-0.369 -0.768,-0.471 -1.178,-0.275 l -0.171,0.083 c -0.097,-0.014 -0.165,-0.144 -0.122,-0.233 0.269,-0.144 0.558,-0.314 0.939,-0.555 0.391,-0.246 0.695,-0.45 1.057,-0.703 0.084,-0.003 0.186,0.119 0.158,0.211 l -0.123,0.102 c -0.309,0.257 -0.346,0.355 -0.311,0.431 0.074,0.078 0.527,0.461 1.227,0.963 1.057,0.772 2.109,1.535 3.189,2.267 -0.094,-0.759 -0.297,-1.908 -0.39,-2.507 -0.123,-0.765 -0.338,-2.031 -0.427,-2.508 -0.047,-0.231 -0.1,-0.334 -0.139,-0.396 -0.039,-0.063 -0.173,-0.077 -0.506,0.083 l -0.17,0.083 c -0.097,-0.014 -0.162,-0.158 -0.123,-0.233 0.26,-0.139 0.603,-0.342 0.939,-0.555 0.293,-0.185 0.563,-0.367 0.844,-0.569 0.084,-0.003 0.174,0.139 0.158,0.211 l -0.256,0.186 c -0.201,0.152 -0.268,0.342 -0.266,0.601 0.015,0.574 0.122,1.511 0.293,2.667 l 0.209,1.394 c 0.16,1.04 0.391,2.332 0.537,2.897 -0.016,0.035 -0.046,0.065 -0.082,0.088 -0.043,0.028 -0.094,0.047 -0.148,0.057 -0.334,-0.311 -0.768,-0.646 -1.152,-0.923 l -3.986,-2.867 z"
           id="path15"
           style="fill:#ffffff"
           inkscape:connector-curvature="0" /><path
           d="m 39.504,20.247 c -0.297,-1.049 -0.361,-1.195 -0.976,-1.098 l -0.167,0.026 c -0.072,-0.023 -0.104,-0.211 -0.052,-0.258 0.44,-0.103 0.786,-0.19 1.199,-0.307 l 1.897,-0.537 c 0.646,-0.183 1.241,-0.351 1.354,-0.416 0.109,0.155 0.375,0.864 0.541,1.297 -0.022,0.072 -0.179,0.138 -0.246,0.091 -0.285,-0.432 -0.477,-0.759 -1.038,-0.742 -0.226,0.01 -0.552,0.091 -0.995,0.217 l -0.728,0.206 c -0.303,0.085 -0.297,0.105 -0.188,0.489 l 0.57,2.019 c 0.08,0.283 0.11,0.274 0.414,0.188 l 0.585,-0.165 c 0.423,-0.121 0.73,-0.229 0.84,-0.304 0.11,-0.075 0.164,-0.155 0.143,-0.422 l -0.036,-0.437 c 0.033,-0.075 0.205,-0.123 0.266,-0.064 0.068,0.242 0.139,0.647 0.248,1.031 0.103,0.363 0.252,0.735 0.314,0.958 -0.021,0.082 -0.192,0.13 -0.26,0.084 l -0.203,-0.368 c -0.091,-0.17 -0.205,-0.302 -0.421,-0.295 -0.152,0 -0.397,0.059 -0.792,0.17 l -0.585,0.166 c -0.302,0.085 -0.329,0.104 -0.256,0.366 l 0.402,1.423 c 0.151,0.535 0.278,0.87 0.489,0.996 0.154,0.087 0.398,0.137 1.286,-0.113 0.776,-0.22 1.059,-0.343 1.249,-0.517 0.153,-0.152 0.326,-0.582 0.439,-1.181 0.057,-0.07 0.207,-0.081 0.273,-0.001 0.029,0.373 -0.004,1.222 -0.059,1.531 -0.914,0.236 -1.814,0.48 -2.713,0.735 l -0.908,0.256 c -0.434,0.123 -0.774,0.23 -1.363,0.418 -0.07,-0.013 -0.136,-0.168 -0.092,-0.247 l 0.324,-0.125 c 0.561,-0.213 0.568,-0.379 0.27,-1.438 l -1.025,-3.632 z"
           id="path17"
           style="fill:#ffffff"
           inkscape:connector-curvature="0" /><path
           d="M 47.773,18.61 C 47.781,17.613 47.75,17.435 47.32,17.38 l -0.334,-0.044 c -0.074,-0.053 -0.072,-0.221 0.012,-0.262 0.588,-0.049 1.312,-0.076 2.34,-0.068 0.65,0.004 1.268,0.061 1.748,0.326 0.503,0.266 0.866,0.74 0.861,1.475 -0.006,0.996 -0.797,1.536 -1.323,1.742 -0.052,0.063 0,0.168 0.052,0.252 0.83,1.358 1.38,2.201 2.09,2.804 0.178,0.158 0.438,0.275 0.721,0.298 0.053,0.021 0.063,0.105 0.01,0.147 -0.095,0.03 -0.262,0.05 -0.461,0.049 -0.892,-0.006 -1.425,-0.271 -2.164,-1.335 -0.269,-0.39 -0.695,-1.117 -1.016,-1.591 C 49.7,20.942 49.532,20.836 49.114,20.833 48.641,20.83 48.62,20.84 48.62,21.061 l -0.01,1.321 c -0.007,1.101 0.014,1.227 0.621,1.315 l 0.22,0.033 c 0.063,0.053 0.04,0.231 -0.022,0.262 -0.473,-0.024 -0.828,-0.037 -1.248,-0.04 -0.441,-0.002 -0.818,0.005 -1.312,0.023 -0.063,-0.032 -0.083,-0.189 -0.019,-0.263 l 0.262,-0.03 c 0.609,-0.069 0.631,-0.205 0.639,-1.306 l 0.022,-3.766 z m 0.852,1.505 c -0.002,0.189 -0.002,0.305 0.029,0.346 0.031,0.032 0.188,0.054 0.723,0.057 0.377,0.003 0.775,-0.036 1.082,-0.266 0.284,-0.218 0.528,-0.583 0.533,-1.297 0.006,-0.828 -0.504,-1.618 -1.668,-1.626 -0.65,-0.004 -0.682,0.037 -0.684,0.332 l -0.015,2.454 z"
           id="path19"
           style="fill:#ffffff"
           inkscape:connector-curvature="0" /><path
           d="m 57.084,25.242 c -0.842,-0.265 -1.289,-0.693 -1.443,-0.863 -0.052,-0.258 0.043,-1.009 0.171,-1.485 0.071,-0.054 0.229,-0.027 0.251,0.046 -0.013,0.558 0.088,1.667 1.248,2.033 0.84,0.265 1.424,-0.156 1.614,-0.755 0.138,-0.44 0.202,-0.958 -0.378,-1.66 l -0.756,-0.92 c -0.396,-0.488 -0.795,-1.241 -0.535,-2.061 0.299,-0.95 1.283,-1.487 2.582,-1.076 0.312,0.098 0.652,0.271 0.891,0.423 0.116,0.082 0.25,0.145 0.33,0.171 0.014,0.269 -0.072,0.857 -0.205,1.276 -0.059,0.048 -0.229,0.027 -0.259,-0.049 0.021,-0.521 -0.044,-1.256 -1.004,-1.559 -0.98,-0.31 -1.396,0.274 -1.541,0.734 -0.183,0.58 0.164,1.152 0.462,1.499 l 0.642,0.752 c 0.508,0.589 0.943,1.365 0.644,2.314 -0.348,1.103 -1.415,1.59 -2.714,1.18 z"
           id="path21"
           style="fill:#ffffff"
           inkscape:connector-curvature="0" /><path
           d="m 65.404,22.954 c 0.58,-0.948 0.656,-1.11 0.155,-1.479 L 65.346,21.32 c -0.031,-0.069 0.085,-0.219 0.155,-0.212 0.437,0.292 0.734,0.486 1.11,0.717 0.357,0.219 0.667,0.396 1.126,0.653 0.037,0.06 -0.045,0.231 -0.119,0.234 l -0.234,-0.119 c -0.556,-0.278 -0.668,-0.138 -1.248,0.811 l -1.95,3.184 c -0.58,0.948 -0.64,1.084 -0.149,1.47 l 0.207,0.164 c 0.031,0.068 -0.085,0.219 -0.155,0.212 -0.437,-0.292 -0.735,-0.487 -1.093,-0.706 -0.375,-0.23 -0.686,-0.407 -1.143,-0.664 -0.038,-0.06 0.032,-0.213 0.119,-0.234 l 0.239,0.11 c 0.565,0.261 0.661,0.146 1.241,-0.802 l 1.952,-3.184 z"
           id="path23"
           style="fill:#ffffff"
           inkscape:connector-curvature="0" /><path
           d="m 69.871,31.428 c -0.809,0.748 -0.91,0.87 -0.535,1.353 l 0.204,0.268 c 0.012,0.074 -0.141,0.187 -0.206,0.162 -0.391,-0.454 -0.625,-0.722 -0.91,-1.03 -0.285,-0.308 -0.542,-0.571 -1.012,-1.049 -0.021,-0.067 0.096,-0.204 0.192,-0.178 l 0.278,0.256 c 0.445,0.404 0.596,0.335 1.404,-0.412 l 3.443,-3.182 c 0.238,-0.221 0.246,-0.228 0.033,-0.459 L 72.37,26.734 c -0.306,-0.331 -0.714,-0.741 -1.068,-0.77 -0.341,-0.028 -0.581,0.051 -0.852,0.145 -0.104,-0.019 -0.165,-0.163 -0.131,-0.25 0.46,-0.197 1.06,-0.537 1.417,-0.768 0.037,0.009 0.137,0.102 0.136,0.146 -0.204,0.274 0.038,0.521 0.366,0.875 l 2.883,3.119 c 0.385,0.416 0.465,0.471 0.771,0.401 0.051,0.024 0.121,0.116 0.105,0.16 -0.395,0.207 -1.068,0.73 -1.278,0.966 -0.091,0.026 -0.211,-0.104 -0.2,-0.186 0.172,-0.202 0.406,-0.519 0.384,-0.712 -0.032,-0.298 -0.242,-0.648 -0.633,-1.072 L 73.764,28.242 C 73.55,28.011 73.55,28.026 73.296,28.26 l -3.425,3.168 z"
           id="path25"
           style="fill:#ffffff"
           inkscape:connector-curvature="0" /><path
           d="m 75.416,38.485 c 0.178,-0.166 0.188,-0.217 0.053,-0.501 l -0.68,-1.43 c -0.111,-0.237 -0.168,-0.281 -0.397,-0.252 l -1.153,0.14 c -0.492,0.061 -0.779,0.115 -0.885,0.166 -0.113,0.053 -0.146,0.127 -0.059,0.364 l 0.119,0.326 c -0.015,0.088 -0.167,0.161 -0.244,0.093 -0.1,-0.255 -0.238,-0.549 -0.439,-0.999 -0.149,-0.313 -0.33,-0.645 -0.46,-0.896 0.011,-0.075 0.152,-0.166 0.228,-0.131 l 0.176,0.299 c 0.127,0.218 0.33,0.377 0.734,0.348 0.518,-0.036 1.26,-0.063 2.509,-0.168 l 3.017,-0.248 c 0.404,-0.029 0.611,-0.058 0.749,-0.159 0.175,0.196 0.422,0.276 0.595,0.322 0.027,0.057 0.039,0.132 -0.018,0.182 -0.359,0.322 -0.723,0.68 -1.072,1.02 l -3.193,3.106 c -0.685,0.661 -0.768,0.852 -0.621,1.282 l 0.093,0.27 c -0.017,0.088 -0.177,0.142 -0.237,0.112 -0.166,-0.398 -0.313,-0.734 -0.516,-1.16 -0.215,-0.455 -0.406,-0.806 -0.545,-1.077 0,-0.093 0.148,-0.175 0.227,-0.131 l 0.16,0.261 c 0.113,0.19 0.232,0.296 0.327,0.251 0.104,-0.05 0.253,-0.178 0.444,-0.362 l 1.088,-1.028 z m -0.047,-2.276 c -0.254,0.028 -0.258,0.042 -0.133,0.307 l 0.554,1.166 c 0.13,0.275 0.177,0.275 0.392,0.069 l 1.302,-1.245 c 0.192,-0.184 0.407,-0.391 0.494,-0.501 l -0.009,-0.019 c -0.062,-0.006 -0.334,0.007 -0.668,0.038 l -1.932,0.185 z"
           id="path27"
           style="fill:#ffffff"
           inkscape:connector-curvature="0" /><path
           d="m 74.776,45.627 c -0.128,-0.872 0.06,-1.461 0.144,-1.676 0.211,-0.158 0.928,-0.401 1.412,-0.494 0.08,0.041 0.123,0.193 0.068,0.244 -0.507,0.233 -1.461,0.81 -1.282,2.013 0.129,0.872 0.763,1.212 1.386,1.121 0.455,-0.068 0.951,-0.236 1.326,-1.066 l 0.496,-1.08 c 0.266,-0.57 0.769,-1.259 1.62,-1.385 0.985,-0.146 1.897,0.503 2.097,1.852 0.049,0.322 0.041,0.705 0.009,0.985 -0.021,0.142 -0.021,0.29 -0.009,0.373 -0.235,0.13 -0.803,0.31 -1.238,0.374 -0.067,-0.032 -0.123,-0.194 -0.068,-0.255 0.477,-0.208 1.109,-0.588 0.963,-1.584 -0.15,-1.017 -0.857,-1.135 -1.335,-1.065 -0.602,0.089 -0.964,0.651 -1.146,1.071 l -0.396,0.906 c -0.309,0.714 -0.814,1.447 -1.801,1.592 -1.14,0.169 -2.045,-0.576 -2.246,-1.926 z"
           id="path29"
           style="fill:#ffffff"
           inkscape:connector-curvature="0" /></g><g
         id="g31"
         style="fill:#ffffff"><path
           d="m 23.64,57.258 c 0.729,-0.269 0.9,-0.377 0.776,-0.834 l -0.087,-0.326 c 0.029,-0.101 0.182,-0.145 0.25,-0.08 0.246,0.512 0.522,1.17 0.86,2.085 0.229,0.62 0.398,1.228 0.337,1.755 -0.051,0.498 -0.324,0.969 -0.953,1.203 -0.709,0.262 -1.226,-0.018 -1.72,-0.506 -0.098,0.035 -0.099,0.127 -0.078,0.242 0.099,0.566 -0.103,1.536 -1.154,1.926 -1.142,0.422 -2.222,-0.141 -2.877,-1.912 -0.105,-0.284 -0.255,-0.777 -0.407,-1.19 -0.16,-0.433 -0.304,-0.761 -0.448,-1.12 0.008,-0.07 0.158,-0.148 0.239,-0.11 l 0.095,0.165 c 0.281,0.488 0.396,0.469 1.43,0.086 l 3.737,-1.384 z m -3.292,2.136 c -0.354,0.132 -0.848,0.336 -0.995,0.603 -0.157,0.271 -0.097,0.585 0.012,0.879 0.324,0.875 0.966,1.399 1.948,1.035 0.777,-0.287 1.537,-1.016 0.958,-2.58 -0.196,-0.531 -0.27,-0.549 -0.467,-0.475 l -1.456,0.538 z m 2.283,-0.845 c -0.276,0.102 -0.292,0.119 -0.087,0.613 0.41,0.988 0.906,1.422 1.831,1.08 0.964,-0.357 1.062,-1.211 0.785,-1.959 -0.079,-0.215 -0.153,-0.355 -0.226,-0.43 -0.066,-0.088 -0.131,-0.107 -0.307,-0.043 l -1.996,0.739 z"
           id="path33"
           style="fill:#ffffff"
           inkscape:connector-curvature="0" /><path
           d="m 26.8,64.551 c 0.871,-0.655 0.984,-0.768 0.672,-1.306 l -0.084,-0.146 c -0.004,-0.076 0.16,-0.173 0.223,-0.142 0.254,0.374 0.459,0.666 0.718,1.009 l 1.185,1.577 c 0.402,0.537 0.773,1.032 0.875,1.113 -0.105,0.156 -0.672,0.66 -1.016,0.972 -0.075,0.005 -0.193,-0.116 -0.174,-0.196 0.299,-0.422 0.537,-0.719 0.318,-1.236 -0.09,-0.207 -0.283,-0.482 -0.561,-0.852 L 28.503,64.74 c -0.189,-0.252 -0.206,-0.238 -0.525,0 L 26.301,66 c -0.235,0.176 -0.216,0.201 -0.026,0.453 l 0.364,0.486 c 0.265,0.353 0.477,0.6 0.585,0.676 0.11,0.074 0.204,0.096 0.445,-0.02 l 0.395,-0.191 c 0.082,0.004 0.188,0.146 0.155,0.225 -0.201,0.15 -0.554,0.363 -0.872,0.602 -0.303,0.228 -0.596,0.5 -0.78,0.639 -0.084,0.01 -0.19,-0.133 -0.173,-0.213 l 0.271,-0.32 c 0.125,-0.146 0.207,-0.299 0.123,-0.498 -0.055,-0.143 -0.197,-0.352 -0.443,-0.678 l -0.364,-0.487 c -0.189,-0.251 -0.216,-0.271 -0.435,-0.106 l -1.184,0.888 c -0.443,0.333 -0.71,0.573 -0.752,0.814 -0.025,0.177 0.015,0.421 0.569,1.16 0.485,0.646 0.7,0.863 0.932,0.979 0.197,0.088 0.661,0.094 1.261,-0.016 0.086,0.027 0.148,0.162 0.1,0.254 -0.338,0.161 -1.142,0.437 -1.45,0.497 -0.55,-0.767 -1.103,-1.521 -1.663,-2.267 L 22.794,68.122 C 22.523,67.762 22.3,67.482 21.911,67 21.899,66.932 22.02,66.812 22.108,66.826 l 0.233,0.258 c 0.401,0.446 0.559,0.395 1.439,-0.268 l 3.02,-2.265 z"
           id="path35"
           style="fill:#ffffff"
           inkscape:connector-curvature="0" /><path
           d="m 31.903,70.384 c 0.589,-0.804 0.669,-0.966 0.353,-1.263 l -0.245,-0.232 c -0.029,-0.086 0.07,-0.22 0.163,-0.205 0.505,0.306 1.106,0.707 1.937,1.314 0.524,0.383 0.993,0.792 1.227,1.289 0.252,0.508 0.27,1.105 -0.164,1.697 -0.588,0.805 -1.545,0.78 -2.093,0.641 -0.079,0.019 -0.099,0.135 -0.106,0.232 -0.121,1.588 -0.169,2.593 0.054,3.497 0.05,0.231 0.194,0.479 0.41,0.665 0.03,0.047 -0.011,0.121 -0.078,0.125 -0.095,-0.031 -0.243,-0.113 -0.403,-0.231 -0.72,-0.526 -0.996,-1.054 -0.972,-2.349 0.01,-0.475 0.09,-1.313 0.106,-1.885 0.01,-0.279 -0.064,-0.463 -0.402,-0.711 -0.381,-0.278 -0.404,-0.283 -0.534,-0.104 l -0.78,1.065 c -0.651,0.889 -0.709,1.004 -0.268,1.43 l 0.16,0.156 c 0.02,0.08 -0.104,0.211 -0.172,0.199 -0.369,-0.296 -0.65,-0.516 -0.988,-0.763 -0.355,-0.261 -0.667,-0.476 -1.077,-0.749 -0.032,-0.063 0.044,-0.203 0.138,-0.225 l 0.23,0.129 c 0.534,0.301 0.632,0.203 1.281,-0.686 l 2.223,-3.036 z m -0.191,1.718 c -0.111,0.153 -0.18,0.246 -0.18,0.299 0.008,0.043 0.121,0.153 0.554,0.471 0.305,0.223 0.65,0.424 1.032,0.418 0.358,-0.012 0.77,-0.165 1.191,-0.74 0.49,-0.67 0.539,-1.607 -0.4,-2.295 -0.523,-0.383 -0.574,-0.369 -0.748,-0.133 l -1.449,1.98 z"
           id="path37"
           style="fill:#ffffff"
           inkscape:connector-curvature="0" /><path
           d="m 42.529,80.434 c -0.131,0.399 -0.148,0.658 0.008,0.787 0.02,0.04 0,0.1 -0.05,0.116 -0.119,-0.04 -0.312,-0.059 -0.517,-0.07 -0.574,-0.033 -1.332,-0.149 -1.87,-0.325 -1.186,-0.389 -2.163,-1.074 -2.677,-2.104 -0.402,-0.794 -0.463,-1.686 -0.176,-2.563 0.277,-0.847 0.838,-1.613 1.672,-2.067 0.896,-0.479 2.037,-0.624 3.541,-0.132 0.568,0.187 1.061,0.47 1.217,0.564 0.176,0.102 0.463,0.273 0.589,0.293 -0.108,0.328 -0.218,0.867 -0.324,1.494 -0.056,0.07 -0.239,0.021 -0.278,-0.059 0.073,-1.168 -0.563,-1.752 -1.58,-2.085 -1.934,-0.634 -3.231,0.464 -3.721,1.959 -0.628,1.914 -0.135,3.742 1.869,4.397 0.617,0.203 1.029,0.195 1.193,0.062 0.073,-0.054 0.182,-0.217 0.286,-0.536 l 0.132,-0.397 c 0.273,-0.837 0.264,-0.907 -0.332,-1.179 l -0.422,-0.195 c -0.066,-0.064 0.002,-0.241 0.082,-0.248 0.282,0.114 0.827,0.304 1.415,0.496 0.389,0.128 0.73,0.229 1.066,0.316 0.057,0.064 0.018,0.217 -0.071,0.254 l -0.166,-0.033 c -0.436,-0.088 -0.537,0.188 -0.703,0.697 l -0.183,0.558 z"
           id="path39"
           style="fill:#ffffff"
           inkscape:connector-curvature="0" /><path
           d="m 47.831,76.814 c 0.003,-1.09 -0.019,-1.248 -0.638,-1.322 l -0.166,-0.021 c -0.063,-0.042 -0.043,-0.231 0.021,-0.262 0.45,0.021 0.807,0.033 1.236,0.033 l 1.973,0.004 c 0.671,0.002 1.291,0.002 1.416,-0.028 0.063,0.179 0.123,0.934 0.165,1.395 -0.043,0.063 -0.21,0.085 -0.263,0.021 -0.156,-0.494 -0.25,-0.86 -0.795,-0.998 -0.221,-0.054 -0.557,-0.064 -1.018,-0.065 l -0.756,-0.002 c -0.314,0 -0.314,0.021 -0.314,0.42 l -0.005,2.098 c -10e-4,0.293 0.031,0.294 0.347,0.294 l 0.607,0.001 c 0.441,0.002 0.766,-0.02 0.891,-0.061 0.127,-0.042 0.2,-0.105 0.253,-0.367 l 0.085,-0.43 c 0.053,-0.063 0.231,-0.063 0.273,0.011 -0.002,0.253 -0.044,0.661 -0.044,1.06 -10e-4,0.378 0.04,0.775 0.04,1.007 -0.043,0.073 -0.221,0.073 -0.273,0.009 L 50.772,79.203 C 50.731,79.014 50.659,78.857 50.449,78.805 50.302,78.762 50.05,78.751 49.641,78.75 l -0.609,-0.002 c -0.314,0 -0.346,0.01 -0.346,0.283 l -0.004,1.479 c -0.001,0.557 0.03,0.912 0.197,1.092 0.126,0.125 0.346,0.241 1.27,0.244 0.807,0 1.111,-0.04 1.343,-0.156 0.188,-0.104 0.472,-0.47 0.745,-1.016 0.074,-0.052 0.221,-0.02 0.263,0.074 -0.073,0.367 -0.339,1.174 -0.474,1.457 -0.945,-0.023 -1.877,-0.035 -2.812,-0.037 L 48.27,82.166 c -0.45,0 -0.807,0.009 -1.426,0.029 -0.063,-0.032 -0.084,-0.2 -0.021,-0.262 l 0.347,-0.031 c 0.598,-0.051 0.651,-0.209 0.653,-1.311 l 0.008,-3.777 z"
           id="path41"
           style="fill:#ffffff"
           inkscape:connector-curvature="0" /><path
           d="m 62.175,75.102 c -0.168,-0.451 -0.642,-1.663 -0.607,-2.078 0.011,-0.095 0.178,-0.246 0.474,-0.412 l 0.131,-0.07 c 0.037,-0.082 -0.015,-0.22 -0.111,-0.24 -0.327,0.146 -0.578,0.25 -1.002,0.408 -0.373,0.139 -0.711,0.253 -1.17,0.402 -0.068,0.059 -0.018,0.221 0.072,0.254 l 0.174,-0.043 c 0.412,-0.098 0.591,-0.098 0.683,-0.031 0.296,0.225 0.782,1.499 0.955,1.961 l 0.784,2.104 c 0.076,0.206 0.135,0.363 0.113,0.428 l -0.019,0.007 c -0.638,-0.3 -1.324,-0.671 -2.286,-1.175 L 59.014,75.9 c -0.461,-0.243 -2.103,-1.109 -2.486,-1.537 -0.12,0.068 -0.285,0.141 -0.441,0.198 -0.177,0.067 -0.697,0.261 -1.121,0.385 -0.063,0.069 -0.008,0.217 0.072,0.253 l 0.174,-0.042 c 0.247,-0.059 0.508,-0.077 0.698,0.009 0.291,0.148 0.376,0.352 0.479,0.627 l 1.059,2.84 c 0.176,0.473 0.632,1.666 0.627,2.072 -0.01,0.125 -0.145,0.244 -0.359,0.357 L 57.46,81.19 c -0.036,0.081 0.024,0.216 0.112,0.239 0.336,-0.148 0.598,-0.258 1.01,-0.41 0.364,-0.137 0.712,-0.254 1.162,-0.399 0.051,-0.075 0.016,-0.196 -0.072,-0.254 l -0.316,0.085 c -0.252,0.071 -0.471,0.086 -0.571,0 -0.276,-0.232 -0.763,-1.507 -0.934,-1.969 l -0.799,-2.143 c -0.11,-0.295 -0.185,-0.524 -0.189,-0.656 l 0.021,-0.008 c 0.287,0.139 1.255,0.695 1.634,0.902 l 3.247,1.744 c 1.218,0.654 1.631,0.893 1.811,1.016 0.108,-0.041 0.148,-0.113 0.146,-0.178 -0.123,-0.246 -0.56,-1.415 -0.67,-1.709 l -0.877,-2.348 z"
           id="path43"
           style="fill:#ffffff"
           inkscape:connector-curvature="0" /><path
           d="m 70.412,74.871 c -0.677,0.564 -1.278,0.713 -1.505,0.752 -0.245,-0.097 -0.826,-0.582 -1.159,-0.945 -0.006,-0.092 0.101,-0.208 0.174,-0.187 0.463,0.31 1.453,0.823 2.387,0.043 0.675,-0.564 0.635,-1.284 0.231,-1.767 -0.296,-0.354 -0.698,-0.688 -1.602,-0.574 l -1.182,0.139 c -0.624,0.072 -1.474,0.002 -2.026,-0.657 -0.638,-0.765 -0.561,-1.883 0.486,-2.757 0.249,-0.209 0.579,-0.402 0.836,-0.521 0.131,-0.055 0.258,-0.133 0.322,-0.186 0.232,0.131 0.682,0.521 0.965,0.86 0.008,0.075 -0.101,0.207 -0.18,0.192 -0.428,-0.299 -1.083,-0.641 -1.855,0.006 -0.789,0.658 -0.521,1.322 -0.211,1.693 0.389,0.467 1.059,0.48 1.511,0.418 l 0.979,-0.137 c 0.77,-0.109 1.658,-0.059 2.298,0.705 0.74,0.886 0.576,2.049 -0.469,2.923 z"
           id="path45"
           style="fill:#ffffff"
           inkscape:connector-curvature="0" /><path
           d="M 71.563,65.725 C 70.656,65.08 70.5,64.995 70.097,65.469 L 69.93,65.67 c -0.072,0.026 -0.213,-0.1 -0.201,-0.169 0.32,-0.415 0.535,-0.7 0.79,-1.06 0.244,-0.342 0.442,-0.638 0.729,-1.077 0.062,-0.033 0.229,0.06 0.227,0.135 l -0.137,0.226 c -0.315,0.535 -0.182,0.656 0.723,1.3 l 3.043,2.165 c 0.906,0.645 1.037,0.713 1.455,0.25 l 0.18,-0.195 c 0.07,-0.025 0.211,0.1 0.201,0.17 -0.322,0.415 -0.537,0.699 -0.78,1.041 -0.255,0.359 -0.454,0.656 -0.741,1.096 -0.062,0.033 -0.211,-0.047 -0.225,-0.135 l 0.126,-0.232 c 0.299,-0.547 0.192,-0.649 -0.714,-1.293 l -3.043,-2.167 z"
           id="path47"
           style="fill:#ffffff"
           inkscape:connector-curvature="0" /><path
           d="m 80.182,61.305 c -0.309,0.823 -0.761,1.248 -0.938,1.395 -0.262,0.036 -1.006,-0.098 -1.475,-0.251 -0.051,-0.075 -0.015,-0.229 0.059,-0.247 0.556,0.041 1.67,0 2.097,-1.141 0.31,-0.824 -0.079,-1.429 -0.668,-1.65 -0.433,-0.162 -0.946,-0.254 -1.677,0.289 l -0.959,0.705 c -0.508,0.369 -1.283,0.729 -2.088,0.427 -0.932,-0.351 -1.416,-1.36 -0.938,-2.637 0.115,-0.304 0.307,-0.636 0.471,-0.864 0.087,-0.113 0.158,-0.244 0.188,-0.323 0.269,10e-4 0.852,0.119 1.264,0.272 0.044,0.063 0.015,0.23 -0.062,0.258 -0.52,-0.049 -1.258,-0.023 -1.611,0.92 -0.361,0.961 0.199,1.407 0.65,1.576 0.57,0.215 1.159,-0.103 1.521,-0.381 l 0.785,-0.602 c 0.616,-0.475 1.414,-0.871 2.347,-0.521 1.082,0.406 1.513,1.497 1.034,2.775 z"
           id="path49"
           style="fill:#ffffff"
           inkscape:connector-curvature="0" /></g></g><path
       d="m 49.607,14.173 c -19.57,0 -35.434,15.863 -35.434,35.433 0,19.569 15.863,35.433 35.434,35.433 19.569,0 35.433,-15.863 35.433,-35.433 0,-19.569 -15.863,-35.433 -35.433,-35.433 z m 0,69.8 c -18.979,0 -34.367,-15.387 -34.367,-34.366 0,-18.979 15.388,-34.364 34.367,-34.364 18.979,0 34.363,15.385 34.363,34.364 0.001,18.979 -15.384,34.366 -34.363,34.366 z"
       id="path51"
       style="fill:#ffffff"
       inkscape:connector-curvature="0" /><g
       id="g53"
       style="fill:#ffffff"><path
         d="m 57.955,66.792 c -0.705,0.538 -1.176,1.346 -1.477,2.013 0.65,0.471 2.175,1.157 4.738,1.596 1.121,-0.624 1.996,-1.188 3,-1.97 -0.914,-0.231 -1.8,-0.724 -2.355,-1.041 -1.131,-0.646 -2.533,-1.649 -3.906,-0.598 z"
         id="path55"
         style="fill:#ffffff"
         inkscape:connector-curvature="0" /><path
         d="m 41.408,62.086 c -0.867,-0.238 -1.334,-0.229 -2.622,0.189 -2.234,0.727 -5.676,4.576 -5.676,4.576 1.033,0.988 2.16,1.881 3.36,2.672 0.957,-1.248 3.537,-4.13 5.907,-4.13 1.298,0 1.968,0.546 3.049,1.206 0.086,-0.135 0.184,-0.27 0.288,-0.408 -1.943,-0.962 -4.306,-4.105 -4.306,-4.105 z"
         id="path57"
         style="fill:#ffffff"
         inkscape:connector-curvature="0" /><path
         d="m 48.949,65.458 c -1.051,0.138 -1.819,1.036 -2.329,1.915 2.001,1.354 3.778,2.953 6.384,3.728 2.029,0.604 2.808,0.833 4.878,0.867 0.915,-0.341 1.798,-0.743 2.658,-1.185 -1.276,-0.154 -2.958,-0.778 -4.401,-1.449 -2.344,-1.09 -5.048,-4.157 -7.19,-3.876 z"
         id="path59"
         style="fill:#ffffff"
         inkscape:connector-curvature="0" /></g><path
       d="m 42.84,66.673 c -2.975,0 -4.151,2.487 -5.121,3.601 3.504,2.021 7.553,3.197 11.889,3.197 2.279,0 4.475,-0.341 6.564,-0.936 -1.337,-0.079 -2.961,-0.422 -4.426,-0.998 -3.267,-1.289 -6.774,-4.864 -8.906,-4.864 z"
       id="path61"
       style="fill:#ffffff"
       inkscape:connector-curvature="0" /><path
       d="m 64.064,64.646 c -1.977,-2.521 -3.537,-2.988 -4.299,-2.797 -0.762,0.19 -0.591,0.767 -1.506,1.848 -0.833,0.984 -2.741,2.072 -3.112,2.34 0.308,0.326 0.733,0.813 0.841,0.929 0.945,-0.876 2.152,-1.708 3.34,-1.708 2.119,0 2.715,1.677 5.516,2.68 0.598,-0.486 1.18,-0.993 1.723,-1.543 -10e-4,0 -1.335,-0.258 -2.503,-1.749 z"
       id="path63"
       style="fill:#ffffff"
       inkscape:connector-curvature="0" /><g
       id="g65"
       style="fill:#ffffff"><path
         d="m 59.441,44.083 c -0.07,-0.107 0.006,-0.289 -0.086,-0.388 -0.088,-0.429 -0.269,-0.817 -0.262,-1.291 -0.059,-0.279 0.234,-0.408 0.408,-0.531 0.11,-0.262 0.102,-0.56 -0.024,-0.815 -0.089,-0.419 -0.675,-0.491 -0.675,-0.95 -0.018,-0.348 -0.247,-0.6 -0.186,-0.981 -0.154,-0.505 -0.149,-1.055 -0.188,-1.593 -0.136,-0.581 -0.124,-1.167 -0.194,-1.782 -0.097,-0.724 -0.192,-1.446 -0.36,-2.132 -0.086,-0.619 -0.289,-1.191 -0.601,-1.708 -0.048,-0.384 -0.427,-0.677 -0.232,-1.105 0.342,-0.477 0.623,-0.996 0.813,-1.543 0.168,-0.317 0.142,-0.708 0.221,-1.06 -0.025,-0.302 0.077,-0.617 -0.027,-0.888 -0.053,-0.043 -0.104,0.012 -0.14,0.033 -0.149,0.502 -0.698,0.712 -1.065,1.02 -0.551,0.231 -1.242,0.141 -1.863,0.212 -0.414,-0.026 -0.744,0.369 -1.152,0.131 -0.204,-0.15 -0.443,-0.209 -0.654,-0.329 -0.482,-0.031 -0.971,0.007 -1.408,-0.033 -0.696,0.036 -1.228,-0.355 -1.923,-0.319 -0.86,-0.033 -1.603,0.402 -2.503,0.326 -0.799,-0.205 -1.582,0.1 -2.225,0.431 -0.246,-0.045 -0.496,-0.186 -0.756,-0.231 -0.697,-0.274 -1.558,0.21 -2.146,-0.343 -0.266,-0.288 -0.461,-0.615 -0.452,-1.008 -0.108,0.062 -0.164,0.205 -0.19,0.324 -0.154,0.278 -0.279,0.593 -0.318,0.929 -0.077,0.424 0.039,0.881 0.134,1.284 0.065,0.717 0.564,1.281 0.454,2.041 -0.123,0.343 -0.276,0.681 -0.377,1.041 -0.293,0.35 -0.227,0.836 -0.309,1.262 -0.266,0.8 -0.064,1.625 -0.024,2.46 -0.298,0.958 -0.437,1.97 -0.547,2.997 -0.085,0.669 -0.039,1.394 -0.304,1.996 -0.359,0.357 -0.667,0.724 -0.555,1.253 0.038,0.274 0.186,0.491 0.318,0.717 0.074,0.541 0.053,1.06 0.018,1.593 0.043,0.436 -0.405,0.569 -0.477,0.941 -0.092,0.367 0.174,0.61 0.404,0.848 0.141,0.233 0.076,0.56 0.15,0.824 0.064,0.674 0.195,1.336 0.26,1.986 0.178,0.974 0.275,1.994 0.481,2.927 0.219,1.15 0.49,2.277 0.805,3.38 0.351,0.796 0.538,1.665 0.846,2.479 0.22,0.674 0.616,1.263 0.61,2.034 0.035,0.086 0.04,0.159 0.057,0.238 0.041,0.467 -0.357,0.839 -0.319,1.327 0,0 1.462,2.553 3.194,3.663 0.705,-0.796 1.691,-1.522 2.958,-1.503 2.097,0.031 4.017,2.148 6.04,3.654 0.144,-0.16 0.303,-0.329 0.473,-0.503 -0.662,-0.937 -3.559,-4.29 -5.998,-4.679 0,0 0.188,-0.482 -0.038,-0.705 -0.186,-0.266 -0.162,-0.471 -0.238,-0.781 -0.012,-0.146 -0.071,-0.352 0.038,-0.474 0.365,0.079 0.524,0.474 0.695,0.751 0.026,0.016 0.057,0.025 0.084,0.021 0.028,-0.006 0.055,-0.021 0.071,-0.058 0.049,-0.364 0.45,-0.591 0.727,-0.763 0.058,-0.031 0.147,-0.012 0.171,0.063 0.064,0.397 -0.031,0.912 0.26,1.229 0.094,0.124 -0.021,0.246 -0.086,0.344 -0.03,0.254 -0.244,0.24 -0.244,0.24 1.813,0.853 2.811,1.905 3.836,3.123 0.684,-0.473 3.154,-2.063 3.121,-3.719 -0.012,-0.548 -0.298,-0.48 -0.432,-0.773 -0.229,-0.193 -0.4,-0.448 -0.533,-0.703 -0.267,-0.533 -0.479,-1.127 -0.371,-1.789 0.186,-0.48 0.205,-1.029 0.414,-1.503 0.27,-0.897 0.472,-1.831 0.748,-2.728 0.326,-1.24 0.66,-2.475 0.828,-3.775 0.18,-0.429 0.165,-0.924 0.256,-1.386 0.178,-0.443 0.088,-0.991 0.199,-1.46 0.057,-0.365 0,-0.77 0.16,-1.086 0.055,-0.181 -0.012,-0.407 0.096,-0.567 -0.039,-0.288 0.273,-0.238 0.34,-0.483 0.242,-0.088 0.256,-0.357 0.362,-0.545 0.052,-0.461 -0.327,-0.759 -0.568,-1.109 z m -1.177,-3.504 c 0.161,0.079 0.411,0.071 0.463,0.274 0.242,0.076 0.198,0.343 0.348,0.488 0.01,0.128 0.007,0.281 -0.105,0.336 -0.361,0.05 -0.7,-0.19 -0.92,-0.448 -0.085,-0.23 0.114,-0.457 0.214,-0.65 z m -2.092,4.874 c -0.049,0.607 -0.015,1.25 -0.088,1.848 -0.066,0.069 -0.003,0.19 -0.037,0.274 -0.118,0.614 -0.024,1.255 -0.14,1.87 l -0.076,0.005 c -0.227,-0.252 -0.692,-0.353 -0.681,-0.75 0.256,-1.038 0.229,-2.21 0.302,-3.299 0.131,-0.898 0.103,-1.855 0.046,-2.768 0.021,-0.026 0.012,-0.076 0.058,-0.079 0.282,0.09 0.412,0.381 0.659,0.541 0.031,0.797 -0.106,1.545 -0.043,2.358 z M 42.514,37.59 c -0.273,-0.007 -0.275,-0.331 -0.355,-0.517 -0.073,-0.119 -0.076,-0.264 -0.074,-0.414 0.096,-0.103 0.138,-0.186 0.135,-0.322 -0.101,-0.074 -0.273,-0.021 -0.309,-0.188 10e-4,-0.219 -0.068,-0.498 0.156,-0.61 0.23,-0.119 0.55,-0.045 0.757,-0.209 0.028,-0.041 -0.019,-0.1 -0.063,-0.098 -0.281,-0.015 -0.488,0.112 -0.729,0.167 -0.092,-0.043 -0.08,-0.136 -0.119,-0.203 -0.005,-0.657 -0.107,-1.281 0.133,-1.848 -0.041,-0.119 -0.084,-0.269 0.02,-0.364 0.264,-0.053 0.427,0.353 0.68,0.252 V 33.2 c -0.202,-0.176 -0.352,-0.383 -0.617,-0.414 -0.143,-0.2 -0.045,-0.46 0.01,-0.665 0.059,-0.076 0.107,-0.186 0.223,-0.122 0.217,0.1 0.318,0.279 0.541,0.386 0.061,-0.047 0.094,-0.124 0.07,-0.186 -0.212,-0.271 -0.751,-0.346 -0.514,-0.793 0.047,-0.16 0.139,-0.381 0.305,-0.424 0.213,0.062 0.324,0.307 0.52,0.431 l 0.051,-0.031 c -0.172,-0.169 -0.268,-0.386 -0.216,-0.638 0.141,-0.124 0.274,0.067 0.405,0.117 l 0.213,0.055 c 0.207,0.114 0.469,0.236 0.477,0.515 0.174,0.252 0.227,0.553 0.469,0.772 0.066,0.174 0.205,0.274 0.301,0.438 -0.066,0.069 -0.164,0.074 -0.248,0.036 -0.239,-0.15 -0.34,-0.426 -0.504,-0.633 -0.061,-0.029 -0.09,0.05 -0.111,0.079 0.076,0.226 0.128,0.464 0.293,0.65 l 0.004,0.157 c -0.346,0.034 -0.65,-0.274 -0.863,-0.548 -0.047,-0.036 -0.115,-0.064 -0.175,-0.023 -0.097,0.055 -0.019,0.159 -0.007,0.233 0.165,0.259 0.312,0.588 0.625,0.722 0.063,0.05 0.096,0.162 0.038,0.233 -0.04,0.16 -0.194,0.104 -0.3,0.076 -0.194,-0.174 -0.42,-0.357 -0.592,-0.526 l -0.098,0.002 c -0.019,0.155 0.152,0.252 0.223,0.378 0.16,0.27 0.645,0.27 0.534,0.65 -0.036,0.069 -0.018,0.167 -0.106,0.2 -0.51,-0.069 -1.195,-0.252 -1.614,0.162 -0.013,0.055 0.027,0.121 0.087,0.119 0.461,-0.031 0.893,0.033 1.255,0.271 0.079,0.081 0.173,0.183 0.138,0.297 -0.073,0.048 -0.18,0.036 -0.254,0.083 -0.146,0.133 -0.318,0.207 -0.473,0.341 0,0.028 0.008,0.06 0.039,0.074 0.232,-0.09 0.455,-0.209 0.694,-0.31 0.082,-0.017 0.158,0.019 0.191,0.093 -0.005,0.122 -0.14,0.133 -0.222,0.195 -0.175,0.212 -0.511,0.348 -0.518,0.629 l 0.076,-0.002 c 0.331,-0.048 0.483,-0.529 0.85,-0.44 0.053,0.05 0.125,0.147 0.059,0.216 -0.431,0.262 -0.998,0.515 -1.057,1.091 0.009,0.038 -0.013,0.083 0.019,0.104 0.122,0.005 0.109,-0.133 0.184,-0.195 0.354,-0.298 0.684,-0.638 1.151,-0.669 0.045,0.014 0.105,0.021 0.146,0.071 -0.007,0.24 -0.352,0.381 -0.352,0.638 -0.055,0.19 -0.116,0.381 -0.21,0.564 0.01,0.048 0.07,0.06 0.1,0.029 0.217,-0.348 0.406,-0.843 0.832,-0.97 -0.004,0.122 0.13,0.026 0.185,0.076 0.228,0.041 0.458,0.131 0.644,0.27 -0.039,0.476 -0.219,1.058 0.029,1.481 0.087,-0.079 0.008,-0.222 0.051,-0.319 0.02,-0.357 0.238,-0.636 0.279,-0.986 0.035,-0.105 0.156,-0.131 0.248,-0.103 0.19,0.076 0.197,0.31 0.382,0.402 0.146,-0.147 -0.042,-0.355 0.028,-0.545 0.064,-0.117 0.225,-0.104 0.338,-0.069 0.047,0.036 0.101,0.047 0.162,0.041 0.057,-0.062 0.04,-0.155 0.037,-0.236 0.243,-0.188 0.322,-0.586 0.656,-0.505 l 0.072,0.081 c -0.009,0.236 -0.031,0.47 -0.078,0.691 -0.092,-0.005 -0.142,-0.2 -0.261,-0.122 -0.088,0.081 -0.048,0.184 -0.007,0.274 0.104,0.208 0.193,0.424 0.307,0.624 0.009,0.062 0.072,0.143 0.006,0.198 -0.258,0.017 -0.371,-0.252 -0.512,-0.4 -0.093,-0.064 -0.157,0.033 -0.17,0.112 -0.051,0.341 0.184,0.598 0.439,0.803 0.099,-0.005 0.16,0.055 0.23,0.122 -0.027,0.122 -0.138,0.207 -0.021,0.317 l 0.128,0.178 c -0.141,0.124 -0.326,-0.012 -0.479,-0.055 -0.346,-0.214 -0.644,-0.569 -0.717,-0.967 -0.023,-0.048 -0.092,-0.06 -0.129,-0.026 -0.113,0.26 0.031,0.519 0.15,0.727 0.17,0.117 0.35,0.3 0.303,0.521 -0.059,0.086 -0.193,0.126 -0.3,0.09 -0.286,-0.238 -0.312,-0.595 -0.346,-0.948 -0.038,-0.014 -0.077,-0.052 -0.114,-0.012 -0.063,0.155 -0.057,0.357 -0.053,0.524 -0.04,0.15 0.057,0.362 -0.061,0.486 -0.178,0.103 -0.43,0.019 -0.623,0.093 -0.238,-0.09 -0.217,-0.386 -0.225,-0.629 -0.039,-0.066 -0.105,-0.012 -0.143,0.019 -0.223,0.122 -0.179,0.596 -0.546,0.45 -0.231,-0.138 -0.491,-0.229 -0.671,-0.457 -0.122,-0.284 0.189,-0.445 0.189,-0.693 0.078,-0.207 0.323,-0.35 0.362,-0.571 -0.146,-0.079 -0.255,0.114 -0.372,0.2 -0.195,0.279 -0.361,0.586 -0.488,0.876 -0.027,0.076 -0.104,0.117 -0.187,0.105 -0.342,-0.3 -0.997,-0.469 -0.894,-1.048 0.073,-0.107 0.138,-0.214 0.18,-0.338 -0.146,-0.108 -0.193,0.099 -0.312,0.14 z m 7.003,1.074 c 0.038,0.029 0.066,0.029 0.112,0.009 0.113,-0.25 0.083,-0.56 0.119,-0.848 0.047,-0.691 0.123,-1.375 0.226,-2.048 0.05,-0.093 0.028,-0.25 0.167,-0.262 0.205,0.045 0.455,0.069 0.553,0.286 0.08,0.919 0.002,1.858 -0.253,2.692 -0.124,0.419 -0.409,0.736 -0.624,1.122 -0.117,0.131 -0.147,0.367 -0.359,0.396 -0.598,-0.843 -0.977,-1.793 -1.008,-2.896 0.01,-0.407 -0.248,-0.96 0.105,-1.265 0.262,-0.098 0.474,-0.362 0.769,-0.338 l 0.04,0.112 c 0.097,0.992 -0.165,2.066 0.153,3.04 z m 2.599,2.887 c -0.499,-0.248 -0.96,-0.733 -1.015,-1.291 0.029,-0.062 0.105,-0.064 0.145,-0.042 l 0.498,0.469 c 0.361,0.231 0.838,0.467 1.014,0.894 0.029,0.143 0.057,0.345 -0.068,0.434 -0.167,0.207 -0.406,0.321 -0.68,0.259 -0.502,-0.06 -0.959,-0.453 -1.193,-0.907 -0.084,-0.338 -0.096,-0.708 0.039,-1.022 0.166,-0.005 0.073,0.188 0.152,0.267 0.246,0.417 0.587,0.958 1.098,1.086 0.05,-0.047 0.041,-0.095 0.01,-0.147 z m -0.217,-4.685 c -0.103,0.103 -0.213,0.203 -0.341,0.252 -0.065,-0.171 0.059,-0.35 0.146,-0.502 0.006,-0.045 0.042,-0.086 0.024,-0.143 -0.069,-0.076 -0.227,-0.026 -0.215,-0.169 -0.018,-0.074 0.018,-0.138 0.045,-0.191 l 0.16,-0.004 c 0.248,0.212 0.528,0.459 0.77,0.681 0.021,0.217 0.012,0.407 -0.088,0.607 -0.016,0.233 -0.178,0.412 -0.238,0.626 0.024,0.052 0.085,0.064 0.128,0.033 0.227,-0.293 0.33,-0.646 0.579,-0.917 0.277,-0.062 0.598,0.021 0.891,-0.041 0.215,0.114 0.074,0.419 0.213,0.581 0.043,0.143 -0.012,0.341 0.119,0.429 0.195,-0.028 0.151,-0.269 0.216,-0.4 0.075,-0.267 0.03,-0.477 0.007,-0.757 -0.047,-0.05 -0.01,-0.112 -0.004,-0.172 0.064,-0.064 0.177,-0.098 0.254,-0.038 0.171,0.1 0.32,0.353 0.498,0.477 0.053,-0.048 0.027,-0.138 0.01,-0.188 -0.035,-0.226 -0.267,-0.371 -0.319,-0.581 0.005,-0.083 0.102,-0.133 0.171,-0.088 0.229,0.083 0.146,0.357 0.333,0.488 0.083,-0.026 0.04,-0.146 0.024,-0.198 -0.083,-0.203 -0.18,-0.396 -0.195,-0.629 0.052,-0.107 0.152,-0.019 0.229,-0.021 0.262,0.119 0.535,0.224 0.775,0.407 0.287,0.241 0.336,0.617 0.428,0.924 -0.059,0.305 0.174,0.674 -0.102,0.886 -0.223,0.076 -0.377,0.314 -0.609,0.367 -0.1,-0.088 -0.082,-0.231 -0.153,-0.326 -0.18,-0.208 -0.271,-0.674 -0.644,-0.572 -0.146,0.147 0.076,0.317 0.127,0.472 0.023,0.288 0.336,0.603 0.071,0.86 -0.308,-0.148 -0.406,0.31 -0.712,0.181 -0.338,-0.102 -0.644,0.496 -0.906,0.043 0.024,-0.417 -0.026,-0.831 -0.075,-1.262 -0.05,-0.126 -0.086,-0.312 -0.229,-0.353 -0.149,0.114 -0.029,0.34 -0.085,0.493 -0.025,0.386 -0.129,0.75 -0.3,1.081 -0.088,0.093 -0.199,0.172 -0.336,0.124 -0.031,-0.014 -0.055,-0.043 -0.078,-0.067 -0.021,-0.202 0.055,-0.424 0.109,-0.622 -0.031,-0.052 -0.105,-0.036 -0.144,-0.012 -0.22,0.255 -0.494,0.671 -0.912,0.603 -0.054,-0.052 -0.146,-0.079 -0.163,-0.138 0.121,-0.217 0.403,-0.391 0.382,-0.641 -0.197,-0.01 -0.319,0.222 -0.506,0.257 -0.106,-0.743 0.646,-1.108 0.747,-1.798 -0.032,-0.021 -0.056,-0.056 -0.102,-0.042 z m -0.004,-3.28 c 0.305,-0.434 0.795,-0.522 1.258,-0.643 0.529,0.031 1.069,0.066 1.424,0.531 0.355,0.498 0.528,1.233 0.297,1.829 -0.313,0.638 -0.929,1.072 -1.646,1.086 -0.277,0.076 -0.539,-0.074 -0.791,-0.167 -0.391,-0.176 -0.531,-0.572 -0.746,-0.884 -0.178,-0.599 -0.06,-1.245 0.204,-1.752 z m 5.211,7.975 c 0.036,-0.045 0.104,-0.1 0.171,-0.133 0.174,-0.005 0.318,0.05 0.463,0.114 0.111,0.195 0.159,0.495 0.059,0.703 -0.281,0.122 -0.521,-0.038 -0.717,-0.214 -0.08,-0.171 0.09,-0.306 0.024,-0.47 z m 0.22,-0.336 C 56.984,41.161 56.755,40.842 56.542,40.575 56.48,40.282 56.239,40.079 56.23,39.77 56.196,39.589 56.135,39.356 56.199,39.194 h 0.029 c 0.248,0.455 0.624,0.85 0.969,1.265 0.123,0.109 0.32,0.148 0.387,0.305 -0.032,0.175 -0.08,0.38 -0.258,0.461 z M 54.93,47.42 c -0.346,0.085 -0.508,-0.303 -0.793,-0.438 -0.32,-0.383 -0.644,-0.819 -0.645,-1.341 0.021,-0.045 0.074,-0.057 0.12,-0.05 0.241,0.274 0.435,0.677 0.81,0.793 0.054,0.005 0.114,-0.012 0.127,-0.074 -0.055,-0.3 -0.262,-0.596 -0.171,-0.9 0.22,0.031 0.348,0.283 0.554,0.345 0.141,0.148 0.087,0.353 0.061,0.529 -0.063,0.364 0.054,0.791 -0.063,1.136 z m -0.104,6.488 c 0.041,-0.848 0.205,-1.662 0.195,-2.501 0.102,-0.131 0.297,-0.167 0.479,-0.174 0.033,0.122 0.003,0.319 0.043,0.462 0.024,0.814 -0.141,1.613 -0.07,2.451 -0.013,0.34 -0.124,0.654 -0.112,1.008 -0.056,0.207 -0.063,0.44 -0.094,0.652 0.014,0.697 -0.173,1.308 -0.289,1.945 -0.104,0.139 -0.07,0.434 -0.274,0.422 -0.249,-0.188 -0.106,-0.486 -0.091,-0.729 0.078,-0.2 0.018,-0.453 0.094,-0.66 -0.084,-1.001 0.224,-1.866 0.119,-2.876 z m -0.228,5.84 c 0.17,0.357 0.25,0.756 0.345,1.139 0.005,0.195 0.077,0.359 -0.054,0.5 -0.472,-0.068 -0.904,0.134 -1.266,0.387 -0.113,0.033 -0.197,-0.033 -0.26,-0.098 -0.065,-0.172 -0.02,-0.379 -0.017,-0.561 0.098,-0.221 -0.025,-0.55 0.19,-0.693 0.104,-0.092 0.314,-0.078 0.324,-0.266 -0.186,-0.131 -0.52,0.037 -0.627,-0.225 -0.213,-0.288 -0.435,-0.621 -0.443,-0.99 0.314,-0.305 0.803,-0.402 1.229,-0.281 0.116,0.057 0.254,0.121 0.317,0.248 0.137,0.262 0.155,0.571 0.262,0.84 z m -0.733,2.325 c 0.068,-0.319 0.422,-0.3 0.639,-0.437 0.082,-0.009 0.182,-0.004 0.199,0.094 -0.094,0.614 -0.176,1.246 -0.59,1.74 -0.044,0.056 -0.096,0.101 -0.172,0.089 -0.055,-0.036 -0.043,-0.119 -0.021,-0.165 0.225,-0.384 0.154,-0.942 -0.055,-1.321 z m -0.943,1.053 c -0.388,-0.101 -0.86,-0.442 -0.949,-0.862 -0.04,-0.098 -0.104,-0.209 -0.053,-0.316 0.189,-0.203 0.498,-0.243 0.771,-0.25 l 0.085,0.096 c -0.055,0.425 -0.196,0.993 0.146,1.332 z m -0.67,-1.679 c -0.25,-0.021 -0.385,0.245 -0.612,0.224 -0.148,-0.171 -0.066,-0.446 -0.161,-0.632 -0.104,-0.662 0.012,-1.369 0.564,-1.779 0.105,-0.062 0.219,-0.014 0.318,0.021 0.203,0.205 0.295,0.481 0.438,0.729 0.09,0.186 0.245,0.338 0.261,0.567 0.113,0.29 0.033,0.626 -0.021,0.906 -0.248,0.038 -0.51,-0.165 -0.787,-0.036 z m -4.549,0.965 c 0.164,-0.141 0.447,-0.266 0.663,-0.134 0.179,0.159 0.164,0.427 0.17,0.636 -0.207,0.424 -0.598,0.76 -1.016,0.922 -0.038,-0.005 -0.083,-0.033 -0.101,-0.072 -0.01,-0.309 0.166,-0.54 0.141,-0.85 -0.088,-0.203 0.051,-0.35 0.143,-0.502 z m 0.754,-0.389 c -0.195,-0.002 -0.365,-0.081 -0.533,-0.16 -0.205,-0.037 -0.236,0.205 -0.408,0.256 -0.053,0.04 -0.088,0.116 -0.156,0.125 -0.08,-0.178 -0.064,-0.404 -0.093,-0.616 -0.112,-0.224 -0.046,-0.491 0.069,-0.69 0.156,-0.109 0.285,-0.334 0.537,-0.258 0.065,-0.063 0.094,-0.147 0.074,-0.238 -0.094,-0.123 -0.259,-0.098 -0.387,-0.071 -0.172,0.081 -0.324,0.235 -0.465,0.354 -0.189,-0.266 -0.178,-0.621 -0.21,-0.952 0.021,-0.319 0.085,-0.684 0.359,-0.829 0.247,0.121 0.586,0.088 0.716,0.396 0.371,0.54 0.841,1.048 0.898,1.728 0.035,0.399 0.086,0.842 -0.123,1.174 -0.107,-0.066 -0.147,-0.164 -0.278,-0.219 z M 47.32,58.191 c -0.615,-0.336 -0.725,-0.992 -0.639,-1.627 0.012,-0.107 0.021,-0.26 0.15,-0.293 0.124,0.088 0.09,0.244 0.169,0.35 0.343,0.603 1.026,0.953 1.45,1.491 0.408,0.238 0.566,0.71 0.596,1.177 0.064,0.133 0.031,0.31 -0.018,0.432 -0.044,0.016 -0.068,-0.037 -0.1,-0.059 -0.305,-0.646 -0.92,-1.24 -1.608,-1.471 z m -2.891,-17.4 c 0.218,-0.052 0.294,-0.267 0.464,-0.386 0.162,-0.162 0.291,-0.386 0.475,-0.572 0.098,-0.019 0.189,0.017 0.215,0.107 0.031,0.286 -0.112,0.5 -0.166,0.752 -0.285,0.612 -0.651,1.205 -1.366,1.317 -0.204,0.028 -0.372,-0.057 -0.491,-0.205 -0.008,-0.262 -0.135,-0.486 -0.098,-0.743 0.037,-0.531 0.388,-0.936 0.678,-1.367 0.08,-0.085 0.274,-0.198 0.346,-0.041 -0.072,0.333 -0.146,0.662 -0.143,1.024 0.022,0.038 0.04,0.085 0.086,0.114 z m 1.51,3.711 c 0.398,-0.3 0.695,-0.752 0.986,-1.117 0.029,-0.033 0.091,0.012 0.101,0.048 -0.001,0.733 -0.429,1.346 -0.873,1.924 -0.27,0.333 -0.757,0.508 -1.204,0.422 -0.335,-0.05 -0.353,-0.412 -0.481,-0.643 -0.015,-0.279 0.106,-0.51 0.235,-0.727 0.385,-0.267 0.913,-0.562 1.119,-1.007 0.044,-0.062 0.132,-0.117 0.188,-0.05 -0.016,0.491 -0.291,0.879 -0.468,1.308 0.138,0.061 0.271,-0.086 0.397,-0.158 z m 1.094,-2.739 c 0.381,-0.117 0.584,-0.448 0.795,-0.741 0,-0.212 0.209,-0.316 0.287,-0.502 0.045,-0.021 0.046,0.031 0.068,0.045 0,0.748 -0.32,1.424 -0.917,1.894 -0.119,0.088 -0.293,0.085 -0.43,0.066 -0.185,-0.114 -0.467,-0.183 -0.46,-0.448 0.017,-0.453 0.117,-0.888 0.526,-1.134 0.132,-0.14 0.181,-0.3 0.352,-0.35 -0.044,0.265 -0.11,0.555 -0.163,0.836 0.034,0.136 -0.152,0.224 -0.058,0.334 z m 1.898,6.917 c 0.023,0.031 0.048,0.067 0.093,0.05 0.086,-0.131 0.012,-0.324 0.131,-0.419 0.051,-0.055 0.15,-0.041 0.209,-0.021 0.258,0.243 0.135,0.648 0.175,0.948 -0.015,0.348 -0.117,0.653 -0.243,0.953 0.063,0.095 0.164,0.017 0.24,-0.007 0.253,-0.372 0.238,-0.848 0.324,-1.289 0.026,-0.09 0.002,-0.212 0.076,-0.273 0.06,-0.017 0.105,0.05 0.114,0.095 0.01,0.302 -0.05,0.607 -0.026,0.893 l 0.055,0.028 c 0.308,-0.364 0.139,-0.934 0.322,-1.362 0.083,-0.238 0.014,-0.524 0.09,-0.76 0.16,0.01 0.16,0.245 0.201,0.379 -0.018,0.181 0.106,0.3 0.156,0.443 0.115,1.022 0.384,2.37 -0.588,3.011 -0.344,0.184 -0.76,0.143 -1.092,-0.02 -0.307,-0.143 -0.359,-0.452 -0.519,-0.688 -0.184,-0.576 -0.445,-1.203 -0.274,-1.86 0.117,-0.622 0.165,-1.267 0.506,-1.805 0.062,0.05 0.019,0.171 0.021,0.255 -0.014,0.491 -0.129,0.97 0.029,1.449 z m 2.905,-2.07 c -0.135,-0.238 -0.105,-0.55 -0.166,-0.826 0.031,-0.205 0.165,0.033 0.213,0.09 0.215,0.591 1.073,0.741 1.123,1.389 0.087,0.165 0.088,0.421 -0.028,0.577 -0.212,0.216 -0.535,0.326 -0.868,0.267 -0.49,-0.195 -0.807,-0.672 -1.152,-1.053 -0.023,-0.281 -0.257,-0.515 -0.135,-0.798 0.089,-0.012 0.159,0.071 0.214,0.121 0.251,0.327 0.57,0.581 0.901,0.819 0.06,0 0.136,0.005 0.157,-0.064 0.076,-0.231 -0.214,-0.327 -0.259,-0.522 z m -0.498,5.814 c -0.105,-0.224 -0.396,-0.366 -0.42,-0.621 -0.011,-0.091 -0.061,-0.248 0.06,-0.298 0.452,0.183 0.87,0.51 1.206,0.909 0.137,0.253 0.148,0.66 -0.049,0.877 -0.012,0.129 -0.062,0.26 -0.188,0.332 -0.127,0.063 -0.299,0.085 -0.46,0.059 -0.536,-0.293 -0.826,-0.874 -0.921,-1.463 h 0.061 c 0.241,0.174 0.278,0.656 0.659,0.539 0.091,-0.072 0.085,-0.222 0.052,-0.334 z m 0.876,-1.119 c -0.337,-0.391 -0.592,-0.822 -0.57,-1.375 0.03,-0.038 0.065,-0.062 0.112,-0.047 0.07,0.088 0.064,0.217 0.137,0.312 0.111,0.195 0.159,0.531 0.463,0.531 0.08,-0.048 0.041,-0.16 0.021,-0.227 0,-0.288 -0.227,-0.545 -0.084,-0.845 h 0.046 c 0.382,0.395 0.854,0.812 0.714,1.414 -0.033,0.168 -0.204,0.263 -0.345,0.32 -0.158,0.022 -0.349,-0.005 -0.494,-0.083 z m -5.121,-0.629 c 0.263,-0.271 0.458,-0.619 0.675,-0.912 0.076,-0.033 0.078,0.043 0.117,0.079 0.098,0.752 -0.313,1.446 -0.922,1.812 -0.156,0.082 -0.358,0.107 -0.541,0.084 -0.117,-0.117 -0.175,-0.26 -0.284,-0.377 -0.062,-0.564 0.058,-1.136 0.461,-1.517 0.162,-0.165 0.179,-0.362 0.356,-0.502 0.23,0.128 0.113,0.495 0.135,0.729 0,0.271 -0.236,0.445 -0.25,0.71 0.085,0.103 0.171,-0.058 0.253,-0.106 z m 0.544,1.228 c 0.145,-0.254 0.436,-0.396 0.586,-0.659 0.097,-0.026 0.174,0.031 0.222,0.091 -10e-4,0.483 -0.283,0.861 -0.537,1.265 0.147,0.114 0.247,-0.122 0.413,-0.081 0.311,-0.243 0.307,-0.637 0.533,-0.924 0.089,-0.026 0.152,0.071 0.186,0.138 0.321,0.665 -0.137,1.261 -0.447,1.753 -0.193,0.359 -0.62,0.238 -0.936,0.283 -0.176,-0.037 -0.365,-0.07 -0.424,-0.273 -0.118,-0.608 0.269,-1.067 0.404,-1.593 z m 0.875,-5.782 c -0.046,0.281 -0.144,0.534 -0.188,0.815 l -0.087,0.1 c 0.084,0.074 -0.01,0.219 -0.021,0.319 -0.119,0.569 -0.597,1.017 -1.152,1.139 -0.198,-0.031 -0.389,-0.086 -0.551,-0.203 -0.256,-0.229 -0.193,-0.646 -0.173,-0.958 0.201,-0.638 0.592,-1.21 0.952,-1.772 0.037,-0.031 0.135,-0.095 0.144,-0.005 0.079,0.564 -0.034,1.089 -0.201,1.579 -0.042,0.114 0.015,0.241 0.13,0.298 0.202,-0.066 0.248,-0.317 0.402,-0.443 l -0.002,-0.083 c 0.236,-0.4 0.467,-0.808 0.559,-1.262 0.028,-0.062 0.089,-0.05 0.143,-0.053 0.131,0.14 0.031,0.348 0.045,0.529 z M 45.488,43.03 c -0.22,0.241 -0.479,0.436 -0.821,0.365 -0.083,-0.026 -0.19,-0.062 -0.216,-0.152 -0.093,-0.558 0.396,-0.889 0.473,-1.375 0.103,-0.109 0.18,-0.279 0.324,-0.283 0.07,0.338 -0.071,0.638 -0.146,0.95 0.107,0.057 0.193,-0.126 0.266,-0.205 0.222,-0.414 0.353,-0.872 0.46,-1.336 0.041,-0.093 0.135,-0.026 0.145,0.041 0.105,0.752 -0.125,1.409 -0.485,1.995 z m -1.117,3.658 0.529,-0.514 c 0.06,-0.002 0.127,-0.005 0.145,0.062 0.078,0.331 -0.086,0.653 -0.198,0.946 0.012,0.143 -0.144,0.284 -0.033,0.403 0.158,-0.021 0.259,-0.208 0.36,-0.317 0.227,-0.291 0.414,-0.617 0.709,-0.836 0.029,0 0.061,0.007 0.076,0.036 -0.038,0.483 -0.275,0.893 -0.467,1.322 -0.238,0.369 -0.621,0.722 -1.1,0.638 l -0.116,-0.109 c -0.04,-0.53 -0.225,-1.175 0.095,-1.631 z m 1.688,6.056 c 0.088,-0.072 0.131,-0.187 0.227,-0.213 0.006,0.188 -0.17,0.346 -0.232,0.536 -0.07,0.207 -0.215,0.386 -0.193,0.626 0.086,0.109 0.19,0.024 0.271,-0.023 0.236,-0.172 0.375,-0.396 0.571,-0.607 0.031,0.021 0.019,0.076 0.019,0.114 -0.036,0.017 -0.027,0.056 -0.027,0.091 -0.207,0.422 -0.431,0.98 -0.957,1.103 -0.18,0.05 -0.355,0.013 -0.48,-0.128 -0.131,-0.336 -0.029,-0.748 0.174,-1.01 0.236,-0.169 0.355,-0.42 0.627,-0.489 z m -0.075,3.827 c 0.05,0.424 0.132,0.874 -0.092,1.235 -0.064,0.101 -0.191,0.18 -0.299,0.107 C 45.439,57.858 45.42,57.678 45.407,57.532 45.38,57.1 45.331,56.749 45.47,56.36 c 0.076,-0.252 0.136,-0.529 0.166,-0.801 0.046,-0.204 0.063,-0.424 0.139,-0.613 0.058,0.133 0.041,0.299 0.098,0.434 0.088,0.391 -0.066,0.834 0.111,1.191 z m -0.722,2.996 c 0.098,-0.245 0.188,-0.491 0.425,-0.657 0.106,-0.246 0.397,-0.131 0.582,-0.236 0.163,0.139 0.571,-0.131 0.521,0.203 -0.207,0.4 -0.359,0.859 -0.246,1.338 -0.107,0.225 -0.57,-0.049 -0.475,0.332 0.151,0.27 0.479,0.092 0.623,0.352 0.063,0.332 0.104,0.68 0.151,1.018 -0.013,0.053 -0.082,0.041 -0.104,0.017 -0.256,-0.188 -0.601,-0.353 -0.921,-0.177 -0.192,0.105 -0.315,0.322 -0.478,0.477 -0.097,0.055 -0.123,-0.078 -0.148,-0.141 -0.22,-0.818 -0.128,-1.749 0.07,-2.526 z m 2.488,-2.59 c -0.221,-0.311 -0.3,-0.687 -0.477,-1.022 -0.047,-0.353 -0.098,-0.72 -0.001,-1.058 0.034,-0.09 0.04,-0.212 0.136,-0.275 l 0.039,0.037 c -0.03,0.779 0.5,1.314 0.934,1.885 0.327,0.33 0.957,0.431 0.906,1.017 0,0.255 0.176,0.546 0.009,0.776 -0.075,0.005 -0.055,-0.05 -0.101,-0.088 -0.387,-0.556 -0.955,-0.833 -1.445,-1.272 z m 1.51,-0.932 c -0.361,-0.42 -0.732,-0.93 -0.507,-1.504 0.026,-0.388 0.174,-0.762 0.499,-1.004 0.065,-0.094 0.016,-0.258 0.15,-0.293 0.063,0.09 -0.041,0.152 -0.054,0.221 0.063,0.391 0.286,0.975 -0.075,1.303 -0.005,0.066 -0.002,0.158 0.066,0.186 0.381,0.104 0.307,-0.393 0.529,-0.527 0.039,0.309 -0.188,0.564 -0.393,0.783 0.033,0.104 0.161,0.107 0.246,0.164 0.219,-0.021 0.279,-0.271 0.373,-0.426 0.101,-0.455 0.055,-0.946 -0.205,-1.318 0.018,-0.128 -0.064,-0.338 0.053,-0.455 0.252,0.024 0.373,0.301 0.507,0.47 0.179,0.434 0.263,0.968 0.11,1.432 0.061,0.462 -0.352,0.571 -0.617,0.867 -0.191,0.101 -0.46,0.222 -0.682,0.101 z m 1.06,0.924 c 0.032,-0.19 0.18,-0.31 0.273,-0.455 0.16,-0.452 0.443,-0.877 0.664,-1.281 0.168,-0.233 0.098,-0.548 0.219,-0.795 0.136,0.035 0.135,0.223 0.199,0.328 0.053,0.533 0.062,1.086 -0.129,1.539 -0.33,0.56 -0.752,1.072 -1.039,1.648 -0.117,0.102 -0.098,0.26 -0.161,0.391 -0.247,-0.418 -0.21,-0.955 -0.026,-1.375 z m 0.325,1.972 c 0.061,-0.473 0.373,-0.851 0.551,-1.266 0.363,-0.471 0.598,-1 0.785,-1.543 0.026,-0.114 -0.068,-0.209 0.021,-0.303 0.196,0.295 0.27,0.701 0.229,1.096 0.016,1.029 -1.079,1.553 -1.226,2.518 -0.116,0.103 -0.204,0.256 -0.276,0.372 -0.151,-0.238 -0.071,-0.588 -0.084,-0.874 z m 2.328,-2.01 c 0.035,-0.583 0.215,-1.112 0.236,-1.7 -0.025,-0.091 0.098,-0.238 0.127,-0.066 0.107,0.557 -0.012,1.159 0.163,1.688 -0.024,0.389 0.071,0.87 -0.269,1.092 -0.143,0.088 -0.251,-0.055 -0.278,-0.167 -0.137,-0.299 0.091,-0.54 0.021,-0.847 z m 0.869,-3.452 c -0.078,0.147 -0.236,0.174 -0.373,0.141 -0.559,-0.188 -0.781,-0.831 -0.94,-1.349 0.135,-0.04 0.171,0.162 0.293,0.203 0.222,0.055 0.31,0.474 0.556,0.348 -0.039,-0.258 -0.309,-0.408 -0.354,-0.655 -0.031,-0.104 -0.135,-0.217 -0.077,-0.323 0.144,0.025 0.099,0.237 0.265,0.264 0.327,0.074 0.587,0.391 0.723,0.682 0.113,0.23 0.038,0.497 -0.093,0.689 z m -1.156,-8.722 c -0.395,-0.283 -0.49,-0.733 -0.609,-1.16 0.012,-0.146 -0.055,-0.317 0.031,-0.434 0.067,-0.017 0.07,0.081 0.118,0.126 0.233,0.229 0.364,0.593 0.681,0.743 0.061,0.057 0.064,0.141 0.148,0.19 0.078,0.045 0.166,-0.012 0.201,-0.088 -0.004,-0.136 -0.129,-0.262 -0.215,-0.381 -0.078,-0.322 -0.424,-0.546 -0.339,-0.927 0.141,-0.131 0.239,0.138 0.376,0.193 0.428,0.148 0.994,0.372 1.064,0.898 0.021,0.281 0.049,0.665 -0.24,0.855 -0.355,0.209 -0.855,0.164 -1.216,-0.015 z m 1.203,-2.965 c 0.107,0.057 0.187,0.184 0.295,0.248 0.216,0.184 0.391,0.458 0.279,0.762 -0.072,0.131 -0.09,0.298 -0.231,0.386 -0.278,0.007 -0.47,-0.312 -0.663,-0.457 -0.172,-0.184 -0.299,-0.407 -0.231,-0.681 0.027,-0.083 0.11,-0.041 0.157,-0.019 0.168,0.055 0.298,0.362 0.475,0.226 -0.005,-0.166 -0.154,-0.306 -0.081,-0.465 z m 0.269,-0.212 c -0.302,-0.453 -0.564,-0.919 -0.635,-1.47 0.014,-0.038 0.066,-0.048 0.098,-0.019 0.235,0.312 0.537,0.779 0.984,0.774 0.131,-0.141 -0.063,-0.286 -0.098,-0.436 -0.026,-0.167 -0.146,-0.336 -0.075,-0.507 0.144,-0.031 0.141,0.14 0.241,0.2 0.293,0.188 0.595,0.434 0.665,0.781 0.003,0.338 -0.039,0.741 -0.311,0.953 -0.301,0.002 -0.622,-0.064 -0.869,-0.276 z m -3.189,3.813 c -0.342,0.44 -0.86,0.788 -1.451,0.762 -0.288,-0.06 -0.586,-0.141 -0.791,-0.393 0.039,-0.25 -0.281,-0.331 -0.229,-0.591 -0.181,-0.5 -0.432,-0.993 -0.336,-1.601 -0.071,-0.624 0.061,-1.286 0.217,-1.872 0.057,-0.093 0.176,-0.445 0.318,-0.208 0.002,0.56 -0.155,1.125 0.064,1.646 0.07,0.038 0.116,0.117 0.207,0.107 0.162,-0.148 -0.012,-0.408 0.126,-0.577 0.082,-0.057 0.131,0.041 0.163,0.1 0.094,0.579 0,1.284 0.28,1.798 0.056,0.095 0.173,0.176 0.276,0.136 0.096,-0.057 0.05,-0.117 0.055,-0.205 -0.304,-0.786 -0.297,-1.83 0.02,-2.597 0.061,-0.017 0.07,0.029 0.101,0.067 0.061,0.526 -0.073,1.053 0.106,1.546 0.226,-0.06 0.202,-0.317 0.272,-0.484 0.144,-0.55 -0.024,-1.088 0.148,-1.622 0.062,0.005 0.049,0.081 0.095,0.11 0.393,1.193 1.199,2.649 0.359,3.878 z M 48.592,34.048 c -0.025,-0.112 0.055,-0.267 -0.07,-0.336 -0.119,0.041 -0.262,0.067 -0.366,0.11 -0.038,-0.01 -0.07,-0.069 -0.079,-0.112 0.006,-0.023 0.014,-0.047 0.012,-0.085 0.238,-0.15 0.476,-0.31 0.736,-0.415 0.051,-0.093 0.183,-0.238 0.27,-0.09 -0.026,0.378 -0.259,0.681 -0.432,1.002 -0.067,0.026 -0.032,-0.053 -0.071,-0.074 z m -0.715,-0.896 c -0.195,0.021 -0.436,0.064 -0.592,-0.081 0.055,-0.176 0.299,-0.122 0.441,-0.186 0.277,-0.062 0.45,0.152 0.679,0.205 0.009,0.024 0.024,0.045 0.019,0.076 -0.165,0.067 -0.35,-0.035 -0.547,-0.014 z m 0.652,-1.579 c -0.129,-0.005 -0.118,-0.157 -0.211,-0.222 -0.07,-0.06 -0.133,-0.138 -0.245,-0.107 -0.141,0.119 -0.172,0.31 -0.259,0.455 l 0.004,0.129 c -0.173,0.028 -0.24,-0.205 -0.357,-0.308 -0.069,-0.307 0.151,-0.526 0.326,-0.743 0.211,-0.015 0.455,0.069 0.581,0.254 0.068,0.173 0.214,0.313 0.161,0.542 z m -0.866,0.67 c -0.06,0.257 0.257,0.24 0.397,0.343 l 0.046,0.06 c -0.049,0.107 -0.185,0.119 -0.284,0.09 -0.266,-0.074 -0.605,-0.05 -0.844,0.072 -0.129,0.019 -0.25,0 -0.343,-0.081 0.023,-0.212 0.308,-0.079 0.448,-0.141 0.105,-0.057 0.217,-0.093 0.313,-0.176 -0.258,-0.25 -0.65,-0.019 -0.976,-0.033 -0.21,0.06 -0.488,0.128 -0.658,-0.024 -0.01,-0.045 0.042,-0.083 0.079,-0.103 0.32,0.074 0.494,-0.188 0.773,-0.195 0.246,-0.114 0.536,-0.031 0.771,0.021 0.087,0.073 0.201,0.078 0.278,0.167 z m -0.722,-0.539 c -0.521,-0.007 -0.938,0.262 -1.451,0.219 -0.033,-0.045 -0.115,-0.021 -0.131,-0.088 -0.025,-0.074 0.073,-0.055 0.11,-0.085 0.138,-0.179 0.382,-0.095 0.537,-0.236 0.143,-0.012 0.311,0.019 0.397,-0.11 0.331,-0.026 0.652,0.048 0.855,0.276 l 10e-4,0.067 c -0.111,0.057 -0.21,-0.031 -0.318,-0.043 z m -1.337,1.415 c 0.555,-0.176 1.156,-0.026 1.575,0.338 0.356,0.548 0.493,1.308 0.247,1.944 -0.16,0.436 -0.525,0.9 -1.022,0.945 -0.589,0.267 -1.194,-0.04 -1.66,-0.419 -0.345,-0.376 -0.647,-0.896 -0.428,-1.408 0.116,-0.652 0.634,-1.228 1.288,-1.4 z m -1.905,9.73 c 0.029,-0.007 0.045,0.017 0.061,0.031 -0.041,1.188 0.008,2.306 0.09,3.521 0.078,1.063 0.111,2.196 0.166,3.237 -0.032,0.198 -0.248,0.327 -0.295,0.517 -0.117,0.131 -0.219,0.3 -0.367,0.35 -0.154,-0.321 -0.082,-0.731 -0.161,-1.084 -0.061,-1.746 -0.296,-3.551 -0.261,-5.375 0.069,-0.229 0.236,-0.422 0.299,-0.65 0.152,-0.194 0.352,-0.359 0.468,-0.547 z m 0.539,7.081 0.05,-0.09 c 0.281,-0.214 0.544,-0.493 0.757,-0.741 0.045,-0.017 0.083,0.005 0.113,0.041 -0.127,0.526 -0.247,1.043 -0.574,1.484 -0.014,0.062 0.01,0.114 0.064,0.126 0.203,-0.255 0.391,-0.548 0.665,-0.752 0.168,-0.193 0.266,-0.438 0.497,-0.56 0.119,0.164 -0.004,0.357 -0.006,0.529 -0.053,0.788 -0.445,1.534 -1.184,1.86 -0.251,0 -0.403,0.229 -0.67,0.134 -0.206,-0.048 -0.43,-0.217 -0.511,-0.403 -0.072,-0.649 0.367,-1.175 0.799,-1.628 z m -0.395,2.316 0.331,-0.064 c 0.038,0.014 0.068,0.028 0.099,0.064 0.089,0.883 0.116,1.813 0.242,2.723 0.034,0.656 0.118,1.235 0.185,1.886 0.059,0.429 0.027,0.905 0.212,1.284 0.171,0.367 -0.102,0.641 -0.229,0.938 -0.332,-0.027 -0.027,-0.428 -0.221,-0.59 -0.285,-1.17 -0.629,-2.311 -0.697,-3.57 -0.078,-0.579 -0.126,-1.175 -0.152,-1.772 -0.105,-0.3 -0.025,-0.626 -0.11,-0.943 0.116,-0.102 0.218,0.046 0.34,0.044 z m -0.273,8.551 c 0.025,-0.402 0.053,-0.803 0.322,-1.113 0.008,-0.211 0.243,-0.229 0.367,-0.345 0.203,0.003 0.449,-0.171 0.613,-0.003 0.004,0.144 0.202,0.22 0.139,0.382 -0.105,0.237 -0.236,0.414 -0.451,0.573 -0.105,0.018 -0.268,-0.106 -0.315,0.053 0.046,0.273 0.411,0.096 0.485,0.326 0.007,0.236 0.107,0.498 0.007,0.72 -0.22,0.021 -0.528,0.03 -0.743,0.149 -0.105,0.064 -0.209,0.15 -0.338,0.117 C 43.431,61.459 43.51,61.07 43.57,60.797 z m 0.501,0.988 c 0.201,-0.081 0.437,-0.088 0.642,-0.02 -0.029,0.243 -0.107,0.473 -0.09,0.736 0.038,0.301 0.178,0.615 0.49,0.734 v 0.016 C 44.888,63.302 44.71,63.128 44.51,63.065 44.248,62.899 44.208,62.603 44.087,62.358 44.076,62.171 43.873,61.949 44.071,61.785 z m 1.98,0.205 c 0.205,0.021 0.447,0.021 0.553,0.232 -0.023,0.241 -0.148,0.434 -0.109,0.689 0.047,0.264 0.031,0.553 0.181,0.767 l 0.005,0.098 c -0.19,-0.017 -0.355,-0.192 -0.51,-0.341 -0.288,-0.285 -0.594,-0.593 -0.574,-1.002 0.068,-0.204 0.282,-0.333 0.454,-0.443 z m 9.402,-0.215 c -0.055,-0.035 -0.033,-0.129 -0.02,-0.176 0.188,-0.291 0.543,-0.061 0.811,-0.164 l 0.047,0.025 c 0.055,0.324 -0.287,0.531 -0.354,0.829 -0.052,0.076 -0.078,0.152 -0.09,0.243 -0.161,0.202 -0.299,0.402 -0.514,0.553 l -0.099,0.002 c 0.056,-0.437 0.422,-0.804 0.219,-1.312 z m 0.955,-0.693 c -0.065,0.055 -0.138,0.141 -0.23,0.091 -0.285,-0.144 -0.521,0.083 -0.799,0.083 -0.098,-0.224 -0.174,-0.469 -0.152,-0.727 0.17,-0.186 0.369,-0.32 0.53,-0.5 0.006,-0.053 -0.011,-0.113 -0.071,-0.119 -0.205,-0.047 -0.44,0.391 -0.587,0.079 -0.122,-0.245 -0.243,-0.493 -0.297,-0.778 0.185,-0.141 0.364,0.042 0.532,0.098 l 0.289,0.076 c 0.527,0.104 0.528,0.664 0.766,1.012 0.007,0.226 0.3,0.504 0.019,0.685 z M 55.274,50.971 c -0.615,0.117 -1.19,-0.152 -1.599,-0.61 -0.189,-0.305 -0.381,-0.607 -0.431,-0.977 0.037,-0.055 0.104,-0.085 0.159,-0.052 0.317,0.293 0.675,0.562 1.063,0.703 l 0.059,-0.076 c 0.07,0.036 0.104,0.155 0.193,0.107 0,-0.045 0.089,-0.064 0.034,-0.1 -0.481,-0.4 -0.782,-0.877 -0.927,-1.432 -0.027,-0.105 0.094,-0.107 0.164,-0.081 0.508,0.31 1.01,0.667 1.483,1.074 0.183,0.267 0.418,0.564 0.269,0.924 -0.036,0.244 -0.212,0.468 -0.467,0.52 z m 0.345,-9.787 c 0.021,-0.055 0.098,-0.036 0.127,-0.021 0.219,0.167 0.309,0.415 0.48,0.612 0.379,0.286 0.725,0.714 1.182,0.843 0.143,0.193 0.376,0.155 0.546,0.286 -0.033,0.184 -0.134,0.367 -0.32,0.426 -0.552,0.024 -0.88,-0.374 -1.254,-0.75 -0.419,-0.389 -0.595,-0.889 -0.761,-1.396 z m 2.293,-0.891 c -0.121,0.05 -0.281,0.002 -0.388,-0.072 -0.415,-0.183 -0.238,-0.643 -0.317,-0.979 -0.023,-0.264 -0.07,-0.581 0.074,-0.795 0.068,-0.019 0.115,0.064 0.146,0.1 0.207,0.56 0.511,1.081 0.485,1.746 z m -0.387,-3.875 c -0.049,0.085 -0.111,0.05 -0.18,0.036 -0.142,-0.207 -0.41,-0.312 -0.462,-0.56 -0.042,-0.098 -0.161,-0.055 -0.222,-0.038 -0.014,0.038 -0.065,0.062 -0.033,0.107 0.305,0.353 0.357,0.813 0.662,1.167 -0.017,0.234 -0.201,0.398 -0.301,0.553 -0.03,0.014 -0.067,0.017 -0.098,0.017 -0.164,-0.138 -0.162,-0.348 -0.289,-0.505 0.004,-0.143 -0.068,-0.262 -0.139,-0.381 0.07,-0.403 -0.262,-0.62 -0.414,-0.924 -0.201,-0.16 -0.464,-0.16 -0.646,-0.384 -0.011,-0.081 -0.013,-0.164 0.054,-0.229 0.257,-0.262 0.606,0.074 0.897,-0.071 0.131,0.081 0.287,-0.038 0.432,0.019 0.201,0.122 0.389,0.288 0.629,0.298 0.162,0.114 0.245,0.317 0.189,0.524 -0.025,0.121 -0.089,0.235 -0.079,0.371 z m -0.511,-3.673 c -0.021,0.112 -0.113,0.252 -0.005,0.355 0.125,0.102 0.293,0.15 0.342,0.324 0.042,0.095 0.022,0.195 -0.089,0.229 -0.342,0.019 -0.633,0.148 -0.85,0.441 10e-4,0.052 -0.004,0.114 0.057,0.143 0.234,0.015 0.234,-0.302 0.451,-0.338 0.159,0.017 0.329,-0.141 0.461,0 -0.047,0.183 0.204,0.267 0.21,0.448 -0.082,0.305 0.052,0.686 -0.122,0.955 -0.378,0.012 -0.701,-0.438 -1.086,-0.124 -0.25,-0.038 -0.465,-0.155 -0.744,-0.121 -0.192,-0.148 -0.26,-0.403 -0.224,-0.646 0.07,-0.176 0.276,-0.122 0.379,-0.252 0.113,-0.012 0.251,0.076 0.347,-0.026 -0.043,-0.165 -0.289,-0.088 -0.418,-0.1 -0.113,0.05 -0.23,0.136 -0.359,0.109 -0.133,-0.081 -0.113,-0.245 -0.095,-0.369 0.175,-0.412 0.651,-0.472 1.04,-0.56 0.023,-0.024 0.06,-0.055 0.044,-0.093 -0.439,-0.257 -0.853,0.079 -1.193,0.302 -0.052,0.024 -0.106,-0.021 -0.109,-0.071 0.076,-0.291 0.21,-0.622 0.539,-0.719 0.021,-0.048 0.097,-0.072 0.071,-0.131 -0.115,-0.081 -0.218,0.029 -0.33,0.038 -0.148,0.141 -0.333,0.27 -0.519,0.357 0.015,-0.243 0.251,-0.438 0.351,-0.669 -0.018,-0.028 -0.018,-0.06 -0.057,-0.081 -0.328,0.169 -0.545,0.469 -0.857,0.667 -0.09,0.034 -0.203,0.021 -0.271,-0.036 -0.057,-0.045 -0.043,-0.126 -0.022,-0.181 0.243,-0.257 0.46,-0.582 0.579,-0.91 0.201,-0.564 0.9,-0.481 1.272,-0.884 0.184,0.055 0.423,-0.066 0.51,0.129 -0.073,0.09 -0.177,0.109 -0.28,0.15 -0.244,0.188 -0.613,0.276 -0.701,0.626 0.156,0.117 0.223,-0.15 0.351,-0.2 0.087,-0.062 0.191,-0.155 0.313,-0.107 0.156,0.176 0.348,-0.26 0.447,0.071 -0.063,0.16 -0.258,0.217 -0.391,0.312 -0.146,0.133 -0.285,0.326 -0.347,0.524 0.048,0.098 0.138,0.005 0.205,0.01 0.206,-0.171 0.402,-0.426 0.675,-0.419 0.328,0.154 0.444,0.506 0.425,0.847 z m -3.496,-2.958 c 0.234,-0.262 0.589,-0.236 0.85,-0.426 0.683,-0.193 1.444,0.064 2.021,-0.362 l 0.732,-0.505 c 0.273,-0.009 0.402,-0.283 0.616,-0.397 0.075,-0.024 0.153,0.019 0.162,0.088 -0.073,0.343 -0.245,0.648 -0.272,0.996 -0.068,0.534 -0.646,0.61 -0.964,0.915 -0.229,0.152 -0.524,0.152 -0.777,0.243 -0.591,0.002 -1.111,0.305 -1.413,0.784 0.096,0.157 -0.076,0.26 -0.188,0.324 -0.134,0.086 -0.346,0.062 -0.424,0.217 0.062,0.064 0.205,0.045 0.186,0.176 -0.31,0.257 -0.829,0.048 -1.146,0.284 -0.045,0.038 -0.119,0.064 -0.125,0.131 0.085,0.067 0.271,-0.014 0.26,0.136 -0.227,0.219 -0.577,0.148 -0.838,0.284 -0.02,0.06 0.049,0.088 0.086,0.095 0.121,0.002 0.225,-0.083 0.346,-0.041 -0.003,0.114 -0.146,0.103 -0.213,0.164 -0.26,0.122 -0.62,0.034 -0.84,0.229 0.109,0.102 0.305,0.052 0.383,0.171 -0.289,0.181 -0.66,0.179 -0.939,0.376 -0.225,0.15 0.087,0.662 -0.313,0.524 -0.236,-0.176 -0.337,-0.438 -0.383,-0.71 0.072,-0.107 -0.049,-0.374 0.148,-0.343 0.191,0.1 0.168,0.312 0.33,0.405 0.129,0.012 0.191,-0.133 0.264,-0.212 -0.182,-0.31 0.28,-0.317 0.402,-0.524 -0.039,-0.257 0.257,-0.222 0.391,-0.314 0.263,-0.076 0.541,-0.131 0.787,-0.236 -0.002,-0.045 -0.054,-0.036 -0.078,-0.06 -0.043,0.024 -0.098,0.019 -0.143,0.019 -0.031,-0.021 -0.039,-0.043 -0.032,-0.081 0.284,-0.379 0.785,-0.288 1.182,-0.429 -0.026,-0.105 -0.177,-0.107 -0.098,-0.238 0.265,-0.229 0.761,-0.114 0.876,-0.526 0.006,-0.083 0.122,-0.193 0.009,-0.25 -0.187,0.098 -0.341,0.283 -0.519,0.396 -0.17,0.186 -0.377,0.288 -0.595,0.357 0.021,-0.122 0.093,-0.183 0.181,-0.278 0.347,-0.327 0.545,-0.741 0.686,-1.153 -0.027,-0.083 -0.125,-0.043 -0.176,-0.034 -0.316,0.312 -0.688,0.52 -1.027,0.772 -0.084,0.002 -0.158,0.057 -0.242,0.024 -0.072,-0.174 0.166,-0.234 0.232,-0.362 0.227,-0.177 0.394,-0.424 0.615,-0.629 z m -3.285,1.784 c -0.101,-0.112 -0.085,-0.3 -0.097,-0.46 -0.047,-0.036 -0.062,-0.042 -0.129,-0.033 -0.126,0.109 -0.22,0.265 -0.192,0.436 -0.037,0.031 -0.067,0.033 -0.098,-0.01 -0.069,-0.271 -0.01,-0.576 0.119,-0.822 0.073,-0.085 0.183,-0.188 0.298,-0.152 0.138,0.079 0.211,0.227 0.32,0.346 -0.059,0.235 -0.028,0.523 -0.221,0.695 z M 51.25,31.18 c -0.107,-0.093 -0.193,0.052 -0.283,0.093 -0.132,0.133 -0.174,0.269 -0.291,0.41 -0.059,0.024 -0.092,-0.043 -0.115,-0.081 -10e-4,-0.279 0.091,-0.524 0.204,-0.752 0.115,-0.157 0.351,-0.155 0.451,-0.355 0.112,-0.071 0.373,-0.162 0.388,0.071 0.006,0.227 0.104,0.422 0.208,0.598 -0.032,0.212 -0.156,0.391 -0.241,0.583 -0.043,0.045 -0.11,0.093 -0.171,0.071 0.044,-0.235 -0.097,-0.419 -0.15,-0.638 z m 0.237,-2.282 c 0.007,-0.265 0.303,-0.229 0.466,-0.3 0.341,-0.033 0.674,0.033 0.857,0.338 0.057,0.119 0.111,0.221 0.139,0.35 -0.162,0.117 -0.125,0.357 -0.303,0.469 -0.275,-0.088 -0.194,-0.448 -0.404,-0.622 -0.287,-0.195 -0.549,0.114 -0.811,0.197 -0.102,-0.132 0.029,-0.287 0.056,-0.432 z m 0.361,0.593 c 0.07,0 0.138,-0.004 0.177,0.062 -0.003,0.357 0.476,0.729 0.062,1.034 -0.287,-0.019 -0.221,-0.338 -0.332,-0.517 -0.219,-0.174 -0.359,0.162 -0.586,0.145 -0.098,0.017 -0.17,-0.079 -0.119,-0.169 0.048,-0.395 0.499,-0.441 0.798,-0.555 z m -2.149,-0.614 c 0.162,-0.367 0.607,-0.426 0.979,-0.429 0.178,0.16 0.236,0.362 0.379,0.531 0.041,0.126 -0.047,0.26 -0.097,0.36 -0.104,0.01 -0.163,-0.171 -0.278,-0.219 -0.191,-0.085 -0.405,-0.155 -0.631,-0.095 -0.12,0.026 -0.205,0.165 -0.328,0.124 -0.055,-0.067 -0.043,-0.189 -0.024,-0.272 z m 0.436,0.483 c 0.238,-0.098 0.309,0.241 0.441,0.372 0.049,0.128 0.27,0.195 0.17,0.374 -0.051,0.069 -0.068,0.229 -0.191,0.171 -0.185,-0.107 -0.284,-0.393 -0.516,-0.279 -0.104,0.086 -0.159,0.224 -0.294,0.25 -0.125,-0.102 -0.055,-0.293 -0.082,-0.443 0.155,-0.163 0.272,-0.287 0.472,-0.445 z m -0.528,3.937 c 0.168,-0.1 0.403,0.077 0.531,-0.119 l 0.045,0.014 c 0.044,0.226 0.186,0.498 0.053,0.731 -0.006,0.133 0.088,0.243 0.062,0.359 -0.142,-0.024 -0.116,-0.181 -0.2,-0.26 -0.048,-0.081 -0.078,-0.152 -0.162,-0.188 -0.191,0.029 -0.104,0.469 -0.348,0.248 -0.064,-0.155 0.105,-0.424 -0.111,-0.5 -0.137,0.152 -0.153,0.338 -0.253,0.498 -0.074,-0.042 -0.167,-0.128 -0.177,-0.233 0.329,-0.121 -0.053,-0.502 0.308,-0.617 0.094,-0.054 0.185,0.011 0.252,0.067 z m -0.193,-1.986 c -0.129,-0.005 -0.072,-0.141 -0.135,-0.207 -0.047,-0.06 -0.096,-0.186 -0.193,-0.138 -0.102,0.117 -0.127,0.283 -0.085,0.434 l -0.044,0.038 c -0.158,-0.191 -0.262,-0.422 -0.247,-0.665 0.019,-0.167 0.165,-0.314 0.306,-0.396 0.137,0.005 0.223,0.124 0.346,0.164 0.157,0.215 0.128,0.532 0.052,0.77 z m -0.749,-1.219 c -0.036,0.1 -0.107,0.2 -0.204,0.264 -0.098,0.01 -0.153,-0.064 -0.192,-0.138 -0.063,-0.074 -0.028,-0.181 -0.04,-0.271 0.139,-0.203 0.198,-0.467 0.415,-0.586 0.249,-0.009 0.378,0.298 0.642,0.252 0.086,0.064 0.066,0.179 0.078,0.283 -0.229,0.205 -0.558,-0.136 -0.699,0.196 z m 0.03,-1.646 c 0.149,-0.019 0.271,0.007 0.373,0.103 0.139,0.131 0.131,0.335 0.271,0.469 0.003,0.088 0.012,0.195 -0.076,0.243 -0.354,0.057 -0.412,-0.405 -0.76,-0.317 -0.123,0.146 -0.346,0.267 -0.4,0.464 -0.052,0.048 -0.102,0.11 -0.171,0.064 -0.079,-0.079 -0.15,-0.16 -0.174,-0.264 0.17,-0.391 0.468,-0.765 0.937,-0.762 z m -0.791,1.574 c 0.043,0.105 0.076,0.255 0.043,0.355 -0.223,-0.024 -0.484,0.021 -0.584,0.274 -0.086,0.141 -0.119,0.312 -0.26,0.424 -0.129,-0.071 -0.209,-0.229 -0.267,-0.362 0.122,-0.248 0.198,-0.498 0.333,-0.729 0.029,-0.038 0.066,-0.079 0.109,-0.086 0.216,0.029 0.402,0.184 0.626,0.124 z m -1.348,-1.212 c 0.22,0.007 0.438,0.01 0.61,0.155 0.116,0.103 0.152,0.319 0.342,0.343 0.07,0.028 0.072,0.112 0.072,0.157 -0.088,0.1 -0.21,0.014 -0.316,0.026 -0.227,0.007 -0.529,-0.281 -0.656,0.064 -0.063,0.107 -0.104,0.291 -0.247,0.303 -0.134,-0.131 -0.222,-0.295 -0.188,-0.479 0.138,-0.2 0.182,-0.429 0.383,-0.569 z m -5.106,0.071 c -0.04,-0.271 0.021,-0.539 0.036,-0.803 0.043,-0.034 0.072,-0.1 0.125,-0.103 0.285,-0.076 0.219,0.257 0.352,0.374 0.145,0.276 0.365,0.564 0.684,0.638 0.568,0.026 1.23,-0.09 1.75,0.105 0.441,0.085 0.799,0.429 1.143,0.76 0.09,0.005 0.133,-0.079 0.238,-0.053 0.104,0.141 0.393,0.2 0.316,0.422 0.326,0.036 0.428,0.405 0.668,0.586 -0.229,0.203 0.477,0.507 -0.063,0.469 -0.406,-0.222 -0.767,0.107 -1.168,0.126 -0.099,-0.026 -0.219,-0.017 -0.305,-0.098 l 0.035,-0.083 c 0.244,-0.174 0.513,-0.303 0.837,-0.327 0.075,-0.047 0.024,-0.205 0.17,-0.15 0.054,0.06 0.11,0.169 0.208,0.152 0.03,-0.014 0.014,-0.052 0.014,-0.083 -0.184,-0.048 -0.228,-0.267 -0.426,-0.305 -0.15,0.005 -0.318,-0.021 -0.398,-0.176 -0.068,-0.255 -0.352,-0.376 -0.559,-0.467 -0.1,-0.064 -0.215,-0.145 -0.343,-0.095 -0.059,0.052 -0.125,0.124 -0.069,0.205 0.191,0.297 0.434,0.569 0.661,0.843 v 0.029 c -0.28,-0.014 -0.456,-0.372 -0.743,-0.341 -0.037,0.041 -0.065,0.107 -0.026,0.16 0.112,0.179 0.353,0.398 0.192,0.601 -0.195,0.021 -0.293,-0.195 -0.395,-0.322 -0.023,-0.271 -0.298,-0.345 -0.505,-0.429 -0.214,-0.079 -0.444,0.033 -0.673,-0.012 -0.199,-0.071 -0.428,0.105 -0.576,-0.081 -0.671,-0.206 -1.13,-0.865 -1.18,-1.542 z m -0.168,11.166 c 0.109,-0.359 0.036,-0.788 0.269,-1.098 0.177,0.048 0.063,0.265 0.127,0.415 0.1,0.322 0.104,0.705 0.16,1.029 -0.101,0.169 -0.296,0.297 -0.491,0.271 -0.119,-0.162 -0.068,-0.421 -0.065,-0.617 z m 1.679,-0.569 c 0.051,-0.083 0.201,-0.119 0.227,0.007 -0.004,0.319 -0.133,0.595 -0.23,0.87 -0.274,0.424 -0.351,0.94 -0.746,1.308 -0.209,0.128 -0.381,0.419 -0.662,0.383 -0.129,-0.224 -0.31,-0.445 -0.293,-0.71 0.626,-0.524 1.333,-1.15 1.704,-1.858 z m -1.169,3.749 c -0.119,0.055 -0.244,0.165 -0.366,0.124 -0.03,-0.233 -0.109,-0.586 0.137,-0.722 0.126,-0.088 0.314,-0.343 0.414,-0.081 0.044,0.248 0.052,0.522 -0.185,0.679 z m 0.372,-0.145 c 0.268,-0.431 0.705,-0.717 0.857,-1.188 0.037,-0.034 0.086,-0.141 0.143,-0.057 -0.051,0.824 -0.393,1.553 -0.879,2.203 -0.233,0.317 -0.609,0.381 -0.93,0.541 -0.105,0.012 -0.198,-0.085 -0.238,-0.174 -0.049,-0.098 -0.098,-0.217 -0.063,-0.331 0.399,-0.277 0.82,-0.606 1.11,-0.994 z m -2.112,-0.379 c 0.046,-0.267 0.112,-0.548 0.38,-0.7 0.143,-0.081 0.304,-0.205 0.465,-0.16 l 0.168,0.314 c 0.043,0.422 -0.408,0.526 -0.65,0.753 -0.084,0.009 -0.087,0.131 -0.172,0.071 -0.124,-0.054 -0.157,-0.175 -0.191,-0.278 z m 0.298,3.902 c -0.113,0.041 -0.176,-0.055 -0.261,-0.091 -0.124,-0.133 -0.214,-0.305 -0.158,-0.502 0.061,-0.25 0.37,-0.252 0.462,-0.498 0.35,-0.162 0.535,-0.546 0.822,-0.789 0.145,0.026 0.299,-0.146 0.4,0.005 -0.318,0.689 -0.708,1.306 -1.265,1.875 z m 1.709,9.391 c -0.386,-1.303 -0.75,-2.622 -0.95,-4.016 -0.233,-1.165 -0.269,-2.419 -0.479,-3.592 0.061,-0.545 -0.033,-1.093 -0.049,-1.646 0.123,-0.169 0.316,-0.267 0.471,-0.4 0.039,-0.002 0.069,0.014 0.094,0.05 -0.02,0.907 0.202,1.741 0.162,2.641 0.08,0.655 0.168,1.37 0.25,2.027 -0.024,0.681 0.123,1.354 0.145,2.058 0.076,0.756 0.248,1.475 0.311,2.246 0.027,0.21 0.102,0.405 0.078,0.631 h -0.033 z m 0.362,-0.995 c -0.108,-0.616 -0.107,-1.306 -0.229,-1.892 -0.158,-1.19 -0.174,-2.467 -0.254,-3.666 -0.07,-0.34 -0.113,-0.724 -0.131,-1.1 -0.107,-0.777 -0.072,-1.586 -0.244,-2.344 -0.068,-0.467 0.086,-0.858 0.25,-1.239 0.109,-0.095 0.27,-0.298 0.395,-0.157 0.07,0.784 0.018,1.565 0.07,2.363 0.079,0.348 0.082,0.665 0.092,1.034 0.076,1.277 0.113,2.499 0.271,3.735 0.232,1.71 0.398,3.449 0.557,5.192 0.071,0.631 0.188,1.241 0.283,1.867 -0.016,0.029 -0.074,0.069 -0.113,0.031 -0.46,-1.209 -0.749,-2.493 -0.947,-3.824 z m 14.094,0.388 c -0.185,0.889 -0.294,1.801 -0.571,2.654 -0.027,0.297 -0.08,0.578 -0.23,0.824 -0.032,0.002 -0.061,-0.006 -0.086,-0.026 -0.04,-0.657 0.253,-1.187 0.302,-1.801 0.061,-0.517 0.067,-1.046 0.174,-1.541 0.055,-0.696 0.079,-1.349 0.149,-2.036 0.07,-0.225 0.101,-0.458 0.125,-0.708 -0.056,-0.536 0.121,-0.985 0.082,-1.515 0.074,-0.531 0.18,-1.072 0.155,-1.623 0.053,-0.969 0.237,-1.891 0.237,-2.889 0.098,-0.281 -0.042,-0.662 0.078,-0.938 -0.039,-0.264 -0.018,-0.543 0.015,-0.802 0.104,-0.246 -0.159,-0.736 0.247,-0.755 0.146,0.086 0.316,0.195 0.428,0.319 0.015,0.31 -0.08,0.614 -0.056,0.948 0,0.52 -0.128,1.024 -0.082,1.551 -0.015,0.75 -0.046,1.498 -0.136,2.227 -0.119,0.867 -0.182,1.753 -0.34,2.596 -0.068,1.212 -0.354,2.339 -0.491,3.515 z m 2.157,-9.494 c -0.133,0.555 -0.002,1.148 -0.106,1.71 0.022,0.522 -0.175,0.958 -0.153,1.472 -0.029,0.793 -0.279,1.505 -0.309,2.299 -0.137,0.776 -0.34,1.538 -0.475,2.313 -0.208,0.905 -0.482,1.784 -0.836,2.634 -0.022,0.018 -0.06,0.018 -0.076,-0.014 0.111,-0.841 0.252,-1.67 0.386,-2.506 0.235,-1.026 0.376,-2.089 0.563,-3.129 0.105,-0.791 0.065,-1.637 0.246,-2.392 0.139,-0.965 0.184,-1.956 0.345,-2.906 0.147,-0.086 0.282,0.076 0.433,0.085 -0.025,0.153 0.015,0.272 -0.018,0.434 z m 0.584,-0.481 c -0.45,-0.357 -1.004,-0.698 -1.314,-1.208 -0.125,-0.133 -0.236,-0.295 -0.174,-0.493 0.066,-0.072 0.139,-0.157 0.239,-0.107 0.243,0.038 0.288,0.286 0.552,0.271 0.092,0.05 0.051,0.188 0.135,0.252 0.25,0.181 0.516,0.469 0.74,0.667 0.064,0.133 0.157,0.243 0.141,0.412 -0.089,0.085 -0.159,0.27 -0.319,0.206 z"
         id="path67"
         style="fill:#ffffff"
         inkscape:connector-curvature="0" /><path
         d="m 42.14,29.113 c 0.25,0.155 0.538,0.186 0.821,0.245 0.262,0.06 0.578,-0.031 0.791,0.171 0.092,0.136 0.332,0.248 0.258,0.458 l -0.059,0.045 c -0.564,-0.286 -1.342,-0.015 -1.814,-0.527 -0.188,-0.047 -0.297,-0.243 -0.346,-0.412 -0.009,-0.06 0.012,-0.129 0.047,-0.16 0.118,0.013 0.197,0.137 0.302,0.18 z"
         id="path69"
         style="fill:#ffffff"
         inkscape:connector-curvature="0" /><path
         d="m 57.354,29.015 c -0.041,0.15 -0.149,0.286 -0.257,0.414 -0.54,0.343 -1.21,0.517 -1.871,0.436 -0.036,-0.012 -0.038,-0.064 -0.018,-0.088 0.419,-0.143 0.876,-0.193 1.257,-0.426 0.277,-0.148 0.562,-0.31 0.871,-0.351 l 0.018,0.015 z"
         id="path71"
         style="fill:#ffffff"
         inkscape:connector-curvature="0" /><path
         d="m 45.229,33.915 c -0.073,-0.033 -0.784,1.079 -0.073,1.693 0.94,0.813 2.008,-0.557 1.779,-0.888 -0.129,-0.05 -0.407,0.788 -1.196,0.61 -0.948,-0.215 -0.438,-1.382 -0.51,-1.415 z"
         id="path73"
         style="fill:#ffffff"
         inkscape:connector-curvature="0" /><path
         d="m 52.473,35.355 c 0.025,0.279 1.131,0.832 1.651,0.05 0.704,-1.058 -0.306,-1.677 -0.636,-1.448 -0.051,0.126 0.609,0.407 0.279,1.117 -0.359,0.777 -1.308,0.129 -1.294,0.281 z"
         id="path75"
         style="fill:#ffffff"
         inkscape:connector-curvature="0" /></g></g><rect
     fill="none"
     width="99.213"
     height="99.213"
     id="rect77" /></svg>